<?xml version="1.0" encoding="UTF-8" standalone="no"?>
<svg xmlns="http://www.w3.org/2000/svg" width="800" height="654" viewBox="0 0 800 654" style="display: block;"><rect width="800" height="654" fill="#FBFBF8"></rect><rect x="0" y="0" width="800" height="3" fill="#111987"></rect><g transform="translate(697.8856209150326,21) scale(0.15250544662309368)"><g><g><path fill="#111987" d="M110.14,113.86c-.2,2.47-.86,4.76-1.75,6.93,4.03-3.25,8.12-7.25,12.15-12.3,8.7-11.31,14.09-25.96,14.09-41.33C134.63,30.1,104.59,0,67.53,0S1.62,28.77.36,64.73c-.03.79-.33,6.59-.35,11v74.8s-.02,1.39,0,3.69c.02,3.07.11,7.87.41,13.01.46,7.64,5.09,12.62,11.77,14.39,1.81.47,3.77.72,5.85.72,9.73,0,17.04-5.3,17.62-15,.31-5.14.35-9.95.37-13.01.02-2.23-.05-3.8-.05-3.8v-79.97c-.06-14.01,4.49-20.41,4.49-20.41,5.68-8.95,15.75-14.91,27.07-14.91,17.44,0,31.58,14.14,31.58,31.58,0,.28,0,2.45-.02,2.74-5.21-5.42-15.78-10.67-25.28-10.67-21.1,0-37.79,16.69-37.79,37.79s16.47,37.23,37.57,37.23c1.13,0,2.6-.05,4.3-.2-9.26-3.75-15.5-13.08-14.67-23.57,1.03-12.96,12.37-22.62,25.32-21.6,12.95,1.02,22.63,12.36,21.6,25.32Z"></path><path fill="#078E53" d="M112.34,133.95c-13.71,0-24.83,11.11-24.83,24.83s11.12,24.82,24.83,24.82,24.82-11.12,24.82-24.82-11.11-24.83-24.82-24.83Z"></path></g><g fill="#111987"><rect x="302.97" y="131.75" width="16.31" height="46.28"></rect><polyline points="248.07 96.65 231.76 96.65 231.76 178.03 248.07 178.03 248.07 96.65"></polyline><rect x="264.48" y="96.65" width="16.3" height="81.38"></rect><polygon points="417.52 120.57 417.52 96.65 401.21 96.65 401.21 118.06 401.21 127.33 401.21 178.03 417.52 178.03 417.52 152.54 417.52 120.57"></polygon><polygon points="459.7 96.65 443.39 96.65 443.39 143.53 429.1 129.24 417.57 140.78 443.39 166.59 443.39 178.03 459.7 178.03 459.75 178.03 459.7 96.65"></polygon><polygon points="292.46 139.2 329 102.59 317.38 90.98 280.85 127.52 292.46 139.2"></polygon><path d="M188.39,111.79c6.87,1.79,11.85,7.87,11.85,15.26,0,2.95-.8,5.71-2.2,8.07-2.75,4.66-8.95,7.99-13.57,8.17h0l22.38,38.83,14.29-8.19-14.94-25.84s.02-.02,0,0c5.49-4.57,10.16-12.83,10.16-20.95s-3.37-15.88-8.81-21.36c-1.25-1.27-2.61-2.42-4.06-3.44,0,0-5.69-4.47-13.83-5.23-6.13-.56-10.71-.47-14.78-.47h-17.14v14.43h16.53c12.6,0,14.12.71,14.12.71"></path><polyline points="157.69 150.1 157.69 123.91 174.01 123.91 174.01 178.03 157.69 178.03 157.69 150.1"></polyline><rect x="335.65" y="96.65" width="49.17" height="15.74"></rect><rect x="335.65" y="162.48" width="49.17" height="15.55"></rect><rect x="335.65" y="129.57" width="49.17" height="15.73"></rect></g></g></g><text x="32" y="41" font-family="'IBM Plex Mono', ui-monospace, monospace" font-size="14" font-weight="500" letter-spacing="0.06em" fill="#0E1116">計算ノード構成</text><text x="32" y="58" font-family="'Inter', system-ui, sans-serif" font-size="11" fill="#4A5260">SMC社製2Uサーバ PIO-121GL-NBIB-01（水冷）</text><line x1="32" y1="66" x2="768" y2="66" stroke="#D4D7DD" stroke-width="1"></line><g><rect x="32" y="81" width="360" height="28" fill="#EEF0FB"></rect><rect x="32" y="88" width="4" height="14" fill="#111987"></rect><line x1="32" y1="109" x2="392" y2="109" stroke="#EAECEF" stroke-width="0.75"></line><text x="44" y="98" font-family="'IBM Plex Mono', ui-monospace, monospace" font-size="10" letter-spacing="1.8" fill="#111987">CPU</text><text x="172" y="98" font-family="'IBM Plex Mono', ui-monospace, monospace" font-size="9" letter-spacing="1.4" fill="#111987" fill-opacity="0.7">単体</text><text x="282" y="98" font-family="'IBM Plex Mono', ui-monospace, monospace" font-size="9" letter-spacing="1.4" fill="#111987" fill-opacity="0.7">ノードあたり</text><g><text x="42" y="130" font-family="'Inter', system-ui, sans-serif" font-size="12" font-weight="500" fill="#4A5260">メモリ容量</text><text x="172" y="129" font-family="'IBM Plex Mono', ui-monospace, monospace" font-size="11" fill="#0E1116">480 GB · ECC</text><text x="282" y="129" font-family="'IBM Plex Mono', ui-monospace, monospace" font-size="11" fill="#4A5260">960 GB</text><line x1="32" y1="139" x2="392" y2="139" stroke="#EAECEF" stroke-width="0.5"></line></g><g><text x="42" y="160" font-family="'Inter', system-ui, sans-serif" font-size="12" font-weight="500" fill="#4A5260">メモリ帯域幅</text><text x="172" y="159" font-family="'IBM Plex Mono', ui-monospace, monospace" font-size="11" fill="#0E1116">384 GB/s</text><text x="282" y="159" font-family="'IBM Plex Mono', ui-monospace, monospace" font-size="11" fill="#4A5260">768 GB/s</text><line x1="32" y1="169" x2="392" y2="169" stroke="#EAECEF" stroke-width="0.5"></line></g></g><g><rect x="408" y="81" width="360" height="28" fill="#EEF0FB"></rect><rect x="408" y="88" width="4" height="14" fill="#111987"></rect><line x1="408" y1="109" x2="768" y2="109" stroke="#EAECEF" stroke-width="0.75"></line><text x="420" y="98" font-family="'IBM Plex Mono', ui-monospace, monospace" font-size="10" letter-spacing="1.8" fill="#111987">ACCELERATOR</text><text x="548" y="98" font-family="'IBM Plex Mono', ui-monospace, monospace" font-size="9" letter-spacing="1.4" fill="#111987" fill-opacity="0.7">単体</text><text x="658" y="98" font-family="'IBM Plex Mono', ui-monospace, monospace" font-size="9" letter-spacing="1.4" fill="#111987" fill-opacity="0.7">ノードあたり</text><g><text x="418" y="130" font-family="'Inter', system-ui, sans-serif" font-size="12" font-weight="500" fill="#4A5260">メモリ容量</text><text x="548" y="129" font-family="'IBM Plex Mono', ui-monospace, monospace" font-size="11" fill="#0E1116">173.2 GB · ECC</text><text x="658" y="129" font-family="'IBM Plex Mono', ui-monospace, monospace" font-size="11" fill="#4A5260">692.8 GB</text><line x1="408" y1="139" x2="768" y2="139" stroke="#EAECEF" stroke-width="0.5"></line></g><g><text x="418" y="160" font-family="'Inter', system-ui, sans-serif" font-size="12" font-weight="500" fill="#4A5260">メモリ帯域幅</text><text x="548" y="159" font-family="'IBM Plex Mono', ui-monospace, monospace" font-size="11" fill="#0E1116">7.9 TB/s</text><text x="658" y="159" font-family="'IBM Plex Mono', ui-monospace, monospace" font-size="11" fill="#4A5260">31.6 TB/s</text><line x1="408" y1="169" x2="768" y2="169" stroke="#EAECEF" stroke-width="0.5"></line></g><g><text x="418" y="190" font-family="'Inter', system-ui, sans-serif" font-size="12" font-weight="500" fill="#4A5260">ピーク (FP64)</text><text x="548" y="189" font-family="'IBM Plex Mono', ui-monospace, monospace" font-size="11" fill="#0E1116">40.1 TFLOPS</text><text x="658" y="189" font-family="'IBM Plex Mono', ui-monospace, monospace" font-size="11" fill="#4A5260">160.4 TFLOPS</text><line x1="408" y1="199" x2="768" y2="199" stroke="#EAECEF" stroke-width="0.5"></line></g><g><text x="418" y="220" font-family="'Inter', system-ui, sans-serif" font-size="12" font-weight="500" fill="#4A5260">ピーク (FP8)</text><text x="548" y="219" font-family="'IBM Plex Mono', ui-monospace, monospace" font-size="11" fill="#0E1116">9.712 PFLOPS</text><text x="658" y="219" font-family="'IBM Plex Mono', ui-monospace, monospace" font-size="11" fill="#4A5260">38.84 PFLOPS</text><line x1="408" y1="229" x2="768" y2="229" stroke="#EAECEF" stroke-width="0.5"></line></g></g><g><rect x="32" y="239" width="736" height="28" fill="#EEF0FB"></rect><rect x="32" y="246" width="4" height="14" fill="#111987"></rect><line x1="32" y1="267" x2="768" y2="267" stroke="#EAECEF" stroke-width="0.75"></line><text x="44" y="256" font-family="'IBM Plex Mono', ui-monospace, monospace" font-size="10" letter-spacing="1.8" fill="#111987">DERIVED</text><text x="282" y="256" font-family="'IBM Plex Mono', ui-monospace, monospace" font-size="9" letter-spacing="1.4" fill="#111987" fill-opacity="0.7">値</text><text x="482" y="256" font-family="'IBM Plex Mono', ui-monospace, monospace" font-size="9" letter-spacing="1.4" fill="#111987" fill-opacity="0.7">備考</text><g><text x="42" y="288" font-family="'Inter', system-ui, sans-serif" font-size="12" font-weight="500" fill="#4A5260">大容量メモリプール (CPU+GPU)</text><text x="282" y="287" font-family="'IBM Plex Mono', ui-monospace, monospace" font-size="11" fill="#0E1116">1,652.8 GB</text><text x="482" y="287" font-family="'IBM Plex Mono', ui-monospace, monospace" font-size="11" fill="#4A5260">CPU・演算加速器を跨ぐ</text><line x1="32" y1="297" x2="768" y2="297" stroke="#EAECEF" stroke-width="0.5"></line></g></g><g><rect x="32" y="307" width="736" height="28" fill="#E6F3EC"></rect><rect x="32" y="314" width="4" height="14" fill="#078E53"></rect><line x1="32" y1="335" x2="768" y2="335" stroke="#EAECEF" stroke-width="0.75"></line><text x="44" y="324" font-family="'IBM Plex Mono', ui-monospace, monospace" font-size="10" letter-spacing="1.8" fill="#078E53">INTERCONNECT</text><text x="282" y="324" font-family="'IBM Plex Mono', ui-monospace, monospace" font-size="9" letter-spacing="1.4" fill="#078E53" fill-opacity="0.7">値</text><text x="482" y="324" font-family="'IBM Plex Mono', ui-monospace, monospace" font-size="9" letter-spacing="1.4" fill="#078E53" fill-opacity="0.7">備考</text><g><text x="42" y="356" font-family="'Inter', system-ui, sans-serif" font-size="12" font-weight="500" fill="#4A5260">IB インジェクション帯域</text><text x="282" y="355" font-family="'IBM Plex Mono', ui-monospace, monospace" font-size="11" fill="#0E1116">800 Gbps</text><text x="482" y="355" font-family="'IBM Plex Mono', ui-monospace, monospace" font-size="11" fill="#4A5260">演算加速器あたり</text><line x1="32" y1="365" x2="768" y2="365" stroke="#EAECEF" stroke-width="0.5"></line></g><g><text x="42" y="386" font-family="'Inter', system-ui, sans-serif" font-size="12" font-weight="500" fill="#4A5260">演算加速器間</text><text x="282" y="385" font-family="'IBM Plex Mono', ui-monospace, monospace" font-size="11" fill="#0E1116">600 GB/s</text><text x="482" y="385" font-family="'IBM Plex Mono', ui-monospace, monospace" font-size="11" fill="#4A5260">双方向</text><line x1="32" y1="395" x2="768" y2="395" stroke="#EAECEF" stroke-width="0.5"></line></g><g><text x="42" y="416" font-family="'Inter', system-ui, sans-serif" font-size="12" font-weight="500" fill="#4A5260">CPU・演算加速器間</text><text x="282" y="415" font-family="'IBM Plex Mono', ui-monospace, monospace" font-size="11" fill="#0E1116">450 GB/s</text><text x="482" y="415" font-family="'IBM Plex Mono', ui-monospace, monospace" font-size="11" fill="#4A5260">—</text><line x1="32" y1="425" x2="768" y2="425" stroke="#EAECEF" stroke-width="0.5"></line></g></g><line x1="32" y1="439" x2="768" y2="439" stroke="#D4D7DD" stroke-width="1"></line><g><rect x="32" y="454" width="736" height="28" fill="#F8EDE5"></rect><rect x="32" y="461" width="4" height="14" fill="#7A2E12"></rect><line x1="32" y1="482" x2="768" y2="482" stroke="#EAECEF" stroke-width="0.75"></line><text x="44" y="471" font-family="'IBM Plex Mono', ui-monospace, monospace" font-size="10" letter-spacing="1.8" fill="#7A2E12">LOCAL STORAGE</text><text x="282" y="471" font-family="'IBM Plex Mono', ui-monospace, monospace" font-size="9" letter-spacing="1.4" fill="#7A2E12" fill-opacity="0.7">値</text><text x="482" y="471" font-family="'IBM Plex Mono', ui-monospace, monospace" font-size="9" letter-spacing="1.4" fill="#7A2E12" fill-opacity="0.7">備考</text><g><text x="42" y="503" font-family="'Inter', system-ui, sans-serif" font-size="12" font-weight="500" fill="#4A5260">容量</text><text x="282" y="502" font-family="'IBM Plex Mono', ui-monospace, monospace" font-size="11" fill="#0E1116">7.68 TB</text><text x="482" y="502" font-family="'IBM Plex Mono', ui-monospace, monospace" font-size="11" fill="#4A5260">NVMe SSD・データ用</text><line x1="32" y1="512" x2="768" y2="512" stroke="#EAECEF" stroke-width="0.5"></line></g><g><text x="42" y="533" font-family="'Inter', system-ui, sans-serif" font-size="12" font-weight="500" fill="#4A5260">読み込み帯域幅</text><text x="282" y="532" font-family="'IBM Plex Mono', ui-monospace, monospace" font-size="11" fill="#0E1116">7.2 GB/s</text><text x="482" y="532" font-family="'IBM Plex Mono', ui-monospace, monospace" font-size="11" fill="#4A5260">—</text><line x1="32" y1="542" x2="768" y2="542" stroke="#EAECEF" stroke-width="0.5"></line></g><g><text x="42" y="563" font-family="'Inter', system-ui, sans-serif" font-size="12" font-weight="500" fill="#4A5260">書き込み帯域幅</text><text x="282" y="562" font-family="'IBM Plex Mono', ui-monospace, monospace" font-size="11" fill="#0E1116">4.8 GB/s</text><text x="482" y="562" font-family="'IBM Plex Mono', ui-monospace, monospace" font-size="11" fill="#4A5260">—</text><line x1="32" y1="572" x2="768" y2="572" stroke="#EAECEF" stroke-width="0.5"></line></g><g><text x="42" y="593" font-family="'Inter', system-ui, sans-serif" font-size="12" font-weight="500" fill="#4A5260">読み込み IOPS</text><text x="282" y="592" font-family="'IBM Plex Mono', ui-monospace, monospace" font-size="11" fill="#0E1116">1,550 K</text><text x="482" y="592" font-family="'IBM Plex Mono', ui-monospace, monospace" font-size="11" fill="#4A5260">4 KB ブロック</text><line x1="32" y1="602" x2="768" y2="602" stroke="#EAECEF" stroke-width="0.5"></line></g><g><text x="42" y="623" font-family="'Inter', system-ui, sans-serif" font-size="12" font-weight="500" fill="#4A5260">書き込み IOPS</text><text x="282" y="622" font-family="'IBM Plex Mono', ui-monospace, monospace" font-size="11" fill="#0E1116">200 K</text><text x="482" y="622" font-family="'IBM Plex Mono', ui-monospace, monospace" font-size="11" fill="#4A5260">4 KB ブロック</text><line x1="32" y1="632" x2="768" y2="632" stroke="#EAECEF" stroke-width="0.5"></line></g></g></svg>