<?xml version="1.0" encoding="UTF-8" standalone="no"?>
<svg width="1048" height="1480" viewBox="0 0 1048 1480" xmlns="http://www.w3.org/2000/svg" style="display: block; width: 100%; height: auto;"><rect x="0" y="0" width="1048" height="1480" fill="#FBFBF8"></rect><rect x="0" y="0" width="1048" height="3" fill="#111987"></rect><text x="32" y="54" font-family="'Inter', 'Noto Sans JP', system-ui, sans-serif" font-size="22" font-weight="600" letter-spacing="-0.3" fill="#0E1116">RIKEN AI for Science Platform — Software Atlas</text><text x="32" y="74" font-family="'Inter', 'Noto Sans JP', system-ui, sans-serif" font-size="12" fill="#4A5260">Catalog of OS, GPU libraries, frameworks, models, and agent infrastructure provisioned on the platform.</text><g transform="translate(32, 88)"><g><path d="M 4.5 0.5 L 23 0.5 A 6.5 6.5 0 0 1 23 13.5 L 4.5 13.5 Z" fill="#FBFBF8" stroke="#111987" stroke-width="1"></path><path d="M 0.5 0.5 L 4.5 0.5 L 4.5 13.5 L 0.5 13.5 Z" fill="#111987"></path></g><text x="37" y="12" font-family="'Inter', 'Noto Sans JP', system-ui, sans-serif" font-size="11" font-weight="500" fill="#0E1116">foundation</text></g><g transform="translate(162, 88)"><g><path d="M 4.5 0.5 L 23 0.5 A 6.5 6.5 0 0 1 23 13.5 L 4.5 13.5 Z" fill="#FBFBF8" stroke="#078E53" stroke-width="1"></path><path d="M 0.5 0.5 L 4.5 0.5 L 4.5 13.5 L 0.5 13.5 Z" fill="#078E53"></path></g><text x="37" y="12" font-family="'Inter', 'Noto Sans JP', system-ui, sans-serif" font-size="11" font-weight="500" fill="#0E1116">compute infrastructure</text></g><g transform="translate(382, 88)"><g><path d="M 4.5 0.5 L 23 0.5 A 6.5 6.5 0 0 1 23 13.5 L 4.5 13.5 Z" fill="#FBFBF8" stroke="#8A6512" stroke-width="1"></path><path d="M 0.5 0.5 L 4.5 0.5 L 4.5 13.5 L 0.5 13.5 Z" fill="#8A6512"></path></g><text x="37" y="12" font-family="'Inter', 'Noto Sans JP', system-ui, sans-serif" font-size="11" font-weight="500" fill="#0E1116">model assets</text></g><g transform="translate(527, 88)"><g><path d="M 4.5 0.5 L 23 0.5 A 6.5 6.5 0 0 1 23 13.5 L 4.5 13.5 Z" fill="#FBFBF8" stroke="#0E1116" stroke-width="1"></path><path d="M 0.5 0.5 L 4.5 0.5 L 4.5 13.5 L 0.5 13.5 Z" fill="#0E1116"></path></g><text x="37" y="12" font-family="'Inter', 'Noto Sans JP', system-ui, sans-serif" font-size="11" font-weight="500" fill="#0E1116">application &amp; research layer</text></g><line x1="32" y1="116" x2="1016" y2="116" stroke="#D4D7DD" stroke-width="0.75"></line><g transform="translate(925.8529411764706,28) scale(0.19607843137254902)"><g><g><path fill="#111987" d="M110.14,113.86c-.2,2.47-.86,4.76-1.75,6.93,4.03-3.25,8.12-7.25,12.15-12.3,8.7-11.31,14.09-25.96,14.09-41.33C134.63,30.1,104.59,0,67.53,0S1.62,28.77.36,64.73c-.03.79-.33,6.59-.35,11v74.8s-.02,1.39,0,3.69c.02,3.07.11,7.87.41,13.01.46,7.64,5.09,12.62,11.77,14.39,1.81.47,3.77.72,5.85.72,9.73,0,17.04-5.3,17.62-15,.31-5.14.35-9.95.37-13.01.02-2.23-.05-3.8-.05-3.8v-79.97c-.06-14.01,4.49-20.41,4.49-20.41,5.68-8.95,15.75-14.91,27.07-14.91,17.44,0,31.58,14.14,31.58,31.58,0,.28,0,2.45-.02,2.74-5.21-5.42-15.78-10.67-25.28-10.67-21.1,0-37.79,16.69-37.79,37.79s16.47,37.23,37.57,37.23c1.13,0,2.6-.05,4.3-.2-9.26-3.75-15.5-13.08-14.67-23.57,1.03-12.96,12.37-22.62,25.32-21.6,12.95,1.02,22.63,12.36,21.6,25.32Z"></path><path fill="#078E53" d="M112.34,133.95c-13.71,0-24.83,11.11-24.83,24.83s11.12,24.82,24.83,24.82,24.82-11.12,24.82-24.82-11.11-24.83-24.82-24.83Z"></path></g><g fill="#111987"><rect x="302.97" y="131.75" width="16.31" height="46.28"></rect><polyline points="248.07 96.65 231.76 96.65 231.76 178.03 248.07 178.03 248.07 96.65"></polyline><rect x="264.48" y="96.65" width="16.3" height="81.38"></rect><polygon points="417.52 120.57 417.52 96.65 401.21 96.65 401.21 118.06 401.21 127.33 401.21 178.03 417.52 178.03 417.52 152.54 417.52 120.57"></polygon><polygon points="459.7 96.65 443.39 96.65 443.39 143.53 429.1 129.24 417.57 140.78 443.39 166.59 443.39 178.03 459.7 178.03 459.75 178.03 459.7 96.65"></polygon><polygon points="292.46 139.2 329 102.59 317.38 90.98 280.85 127.52 292.46 139.2"></polygon><path d="M188.39,111.79c6.87,1.79,11.85,7.87,11.85,15.26,0,2.95-.8,5.71-2.2,8.07-2.75,4.66-8.95,7.99-13.57,8.17h0l22.38,38.83,14.29-8.19-14.94-25.84s.02-.02,0,0c5.49-4.57,10.16-12.83,10.16-20.95s-3.37-15.88-8.81-21.36c-1.25-1.27-2.61-2.42-4.06-3.44,0,0-5.69-4.47-13.83-5.23-6.13-.56-10.71-.47-14.78-.47h-17.14v14.43h16.53c12.6,0,14.12.71,14.12.71"></path><polyline points="157.69 150.1 157.69 123.91 174.01 123.91 174.01 178.03 157.69 178.03 157.69 150.1"></polyline><rect x="335.65" y="96.65" width="49.17" height="15.74"></rect><rect x="335.65" y="162.48" width="49.17" height="15.55"></rect><rect x="335.65" y="129.57" width="49.17" height="15.73"></rect></g></g></g><g transform="translate(0, 106)"><g><rect x="32" y="32" width="480" height="306" fill="#FBFBF8" stroke="#D4D7DD" stroke-width="0.75" rx="10"></rect><path d="M 42 32 H 502 A 10 10 0 0 1 512 42 V 60 H 32 V 42 A 10 10 0 0 1 42 32 Z" fill="#EEF0FB"></path><text x="46" y="51" font-family="'IBM Plex Mono', ui-monospace, monospace" font-size="10" letter-spacing="2.2" fill="#111987">5.1 · OS / RUNTIME</text><g><g><path d="M 51 74 L 252 74 A 14 14 0 0 1 252 102 L 51 102 Z" fill="#FBFBF8" stroke="#111987" stroke-width="1"></path><path d="M 46 74 L 51 74 L 51 102 L 46 102 Z" fill="#111987"></path></g><text x="60" y="92" font-family="'Inter', 'Noto Sans JP', system-ui, sans-serif" font-size="12" font-weight="500" fill="#0E1116">Rocky Linux 10</text><text x="60" y="113" font-family="'IBM Plex Mono', ui-monospace, monospace" font-size="9" fill="#4A5260">ARM · aarch64</text></g><g><g><path d="M 283 74 L 484 74 A 14 14 0 0 1 484 102 L 283 102 Z" fill="#FBFBF8" stroke="#111987" stroke-width="1"></path><path d="M 278 74 L 283 74 L 283 102 L 278 102 Z" fill="#111987"></path></g><text x="292" y="92" font-family="'Inter', 'Noto Sans JP', system-ui, sans-serif" font-size="12" font-weight="500" fill="#0E1116">Apptainer</text><text x="292" y="113" font-family="'IBM Plex Mono', ui-monospace, monospace" font-size="9" fill="#4A5260">HPC containers</text></g><g><g><path d="M 51 126 L 252 126 A 14 14 0 0 1 252 154 L 51 154 Z" fill="#FBFBF8" stroke="#111987" stroke-width="1"></path><path d="M 46 126 L 51 126 L 51 154 L 46 154 Z" fill="#111987"></path></g><text x="60" y="144" font-family="'Inter', 'Noto Sans JP', system-ui, sans-serif" font-size="12" font-weight="500" fill="#0E1116">Podman</text><text x="60" y="165" font-family="'IBM Plex Mono', ui-monospace, monospace" font-size="9" fill="#4A5260">service containers</text></g><g><g><path d="M 283 126 L 484 126 A 14 14 0 0 1 484 154 L 283 154 Z" fill="#FBFBF8" stroke="#111987" stroke-width="1"></path><path d="M 278 126 L 283 126 L 283 154 L 278 154 Z" fill="#111987"></path></g><text x="292" y="144" font-family="'Inter', 'Noto Sans JP', system-ui, sans-serif" font-size="12" font-weight="500" fill="#0E1116">NVIDIA Driver · CUDA</text><text x="292" y="165" font-family="'IBM Plex Mono', ui-monospace, monospace" font-size="9" fill="#4A5260">latest stable</text></g><g><g><path d="M 51 178 L 252 178 A 14 14 0 0 1 252 206 L 51 206 Z" fill="#FBFBF8" stroke="#111987" stroke-width="1"></path><path d="M 46 178 L 51 178 L 51 206 L 46 206 Z" fill="#111987"></path></g><text x="60" y="196" font-family="'Inter', 'Noto Sans JP', system-ui, sans-serif" font-size="12" font-weight="500" fill="#0E1116">CUDA-aware MPI</text><text x="60" y="217" font-family="'IBM Plex Mono', ui-monospace, monospace" font-size="9" fill="#4A5260">Open MPI</text></g><g><g><path d="M 283 178 L 484 178 A 14 14 0 0 1 484 206 L 283 206 Z" fill="#FBFBF8" stroke="#111987" stroke-width="1"></path><path d="M 278 178 L 283 178 L 283 206 L 278 206 Z" fill="#111987"></path></g><text x="292" y="196" font-family="'Inter', 'Noto Sans JP', system-ui, sans-serif" font-size="12" font-weight="500" fill="#0E1116">Environment Modules</text><text x="292" y="217" font-family="'IBM Plex Mono', ui-monospace, monospace" font-size="9" fill="#4A5260">version mgmt</text></g></g><g><rect x="536" y="32" width="480" height="306" fill="#FBFBF8" stroke="#D4D7DD" stroke-width="0.75" rx="10"></rect><path d="M 546 32 H 1006 A 10 10 0 0 1 1016 42 V 60 H 536 V 42 A 10 10 0 0 1 546 32 Z" fill="#E6F3EC"></path><text x="550" y="51" font-family="'IBM Plex Mono', ui-monospace, monospace" font-size="10" letter-spacing="2.2" fill="#078E53">5.2 · GPU COMPUTE LIBRARIES</text><g><g><path d="M 555 74 L 756 74 A 14 14 0 0 1 756 102 L 555 102 Z" fill="#FBFBF8" stroke="#078E53" stroke-width="1"></path><path d="M 550 74 L 555 74 L 555 102 L 550 102 Z" fill="#078E53"></path></g><text x="564" y="92" font-family="'Inter', 'Noto Sans JP', system-ui, sans-serif" font-size="12" font-weight="500" fill="#0E1116">CUDA</text><text x="564" y="113" font-family="'IBM Plex Mono', ui-monospace, monospace" font-size="9" fill="#4A5260">parallel compute</text></g><g><g><path d="M 787 74 L 988 74 A 14 14 0 0 1 988 102 L 787 102 Z" fill="#FBFBF8" stroke="#078E53" stroke-width="1"></path><path d="M 782 74 L 787 74 L 787 102 L 782 102 Z" fill="#078E53"></path></g><text x="796" y="92" font-family="'Inter', 'Noto Sans JP', system-ui, sans-serif" font-size="12" font-weight="500" fill="#0E1116">cuDNN</text><text x="796" y="113" font-family="'IBM Plex Mono', ui-monospace, monospace" font-size="9" fill="#4A5260">DL primitives</text></g><g><g><path d="M 555 126 L 756 126 A 14 14 0 0 1 756 154 L 555 154 Z" fill="#FBFBF8" stroke="#078E53" stroke-width="1"></path><path d="M 550 126 L 555 126 L 555 154 L 550 154 Z" fill="#078E53"></path></g><text x="564" y="144" font-family="'Inter', 'Noto Sans JP', system-ui, sans-serif" font-size="12" font-weight="500" fill="#0E1116">cuBLAS</text><text x="564" y="165" font-family="'IBM Plex Mono', ui-monospace, monospace" font-size="9" fill="#4A5260">dense linear algebra</text></g><g><g><path d="M 787 126 L 988 126 A 14 14 0 0 1 988 154 L 787 154 Z" fill="#FBFBF8" stroke="#078E53" stroke-width="1"></path><path d="M 782 126 L 787 126 L 787 154 L 782 154 Z" fill="#078E53"></path></g><text x="796" y="144" font-family="'Inter', 'Noto Sans JP', system-ui, sans-serif" font-size="12" font-weight="500" fill="#0E1116">cuSPARSE</text><text x="796" y="165" font-family="'IBM Plex Mono', ui-monospace, monospace" font-size="9" fill="#4A5260">sparse linear algebra</text></g><g><g><path d="M 555 178 L 756 178 A 14 14 0 0 1 756 206 L 555 206 Z" fill="#FBFBF8" stroke="#078E53" stroke-width="1"></path><path d="M 550 178 L 555 178 L 555 206 L 550 206 Z" fill="#078E53"></path></g><text x="564" y="196" font-family="'Inter', 'Noto Sans JP', system-ui, sans-serif" font-size="12" font-weight="500" fill="#0E1116">cuFFT</text><text x="564" y="217" font-family="'IBM Plex Mono', ui-monospace, monospace" font-size="9" fill="#4A5260">FFT</text></g><g><g><path d="M 787 178 L 988 178 A 14 14 0 0 1 988 206 L 787 206 Z" fill="#FBFBF8" stroke="#078E53" stroke-width="1"></path><path d="M 782 178 L 787 178 L 787 206 L 782 206 Z" fill="#078E53"></path></g><text x="796" y="196" font-family="'Inter', 'Noto Sans JP', system-ui, sans-serif" font-size="12" font-weight="500" fill="#0E1116">NCCL</text><text x="796" y="217" font-family="'IBM Plex Mono', ui-monospace, monospace" font-size="9" fill="#4A5260">multi-GPU collectives</text></g><g><g><path d="M 555 230 L 756 230 A 14 14 0 0 1 756 258 L 555 258 Z" fill="#FBFBF8" stroke="#078E53" stroke-width="1"></path><path d="M 550 230 L 555 230 L 555 258 L 550 258 Z" fill="#078E53"></path></g><text x="564" y="248" font-family="'Inter', 'Noto Sans JP', system-ui, sans-serif" font-size="12" font-weight="500" fill="#0E1116">TensorRT</text><text x="564" y="269" font-family="'IBM Plex Mono', ui-monospace, monospace" font-size="9" fill="#4A5260">inference optimizer</text></g><g><g><path d="M 787 230 L 988 230 A 14 14 0 0 1 988 258 L 787 258 Z" fill="#FBFBF8" stroke="#078E53" stroke-width="1"></path><path d="M 782 230 L 787 230 L 787 258 L 782 258 Z" fill="#078E53"></path></g><text x="796" y="248" font-family="'Inter', 'Noto Sans JP', system-ui, sans-serif" font-size="12" font-weight="500" fill="#0E1116">CUTLASS</text><text x="796" y="269" font-family="'IBM Plex Mono', ui-monospace, monospace" font-size="9" fill="#4A5260">GEMM kernels</text></g><g><g><path d="M 555 282 L 756 282 A 14 14 0 0 1 756 310 L 555 310 Z" fill="#FBFBF8" stroke="#078E53" stroke-width="1"></path><path d="M 550 282 L 555 282 L 555 310 L 550 310 Z" fill="#078E53"></path></g><text x="564" y="300" font-family="'Inter', 'Noto Sans JP', system-ui, sans-serif" font-size="12" font-weight="500" fill="#0E1116">cuDSS</text><text x="564" y="321" font-family="'IBM Plex Mono', ui-monospace, monospace" font-size="9" fill="#4A5260">direct sparse solvers</text></g></g><g><rect x="32" y="362" width="480" height="254" fill="#FBFBF8" stroke="#D4D7DD" stroke-width="0.75" rx="10"></rect><path d="M 42 362 H 502 A 10 10 0 0 1 512 372 V 390 H 32 V 372 A 10 10 0 0 1 42 362 Z" fill="#E6F3EC"></path><text x="46" y="381" font-family="'IBM Plex Mono', ui-monospace, monospace" font-size="10" letter-spacing="2.2" fill="#078E53">5.3 · DEEP LEARNING FRAMEWORKS</text><g><g><path d="M 51 404 L 252 404 A 14 14 0 0 1 252 432 L 51 432 Z" fill="#FBFBF8" stroke="#078E53" stroke-width="1"></path><path d="M 46 404 L 51 404 L 51 432 L 46 432 Z" fill="#078E53"></path></g><text x="60" y="422" font-family="'Inter', 'Noto Sans JP', system-ui, sans-serif" font-size="12" font-weight="500" fill="#0E1116">PyTorch</text><text x="60" y="443" font-family="'IBM Plex Mono', ui-monospace, monospace" font-size="9" fill="#4A5260">reference framework</text></g><g><g><path d="M 283 404 L 484 404 A 14 14 0 0 1 484 432 L 283 432 Z" fill="#FBFBF8" stroke="#078E53" stroke-width="1"></path><path d="M 278 404 L 283 404 L 283 432 L 278 432 Z" fill="#078E53"></path></g><text x="292" y="422" font-family="'Inter', 'Noto Sans JP', system-ui, sans-serif" font-size="12" font-weight="500" fill="#0E1116">DeepSpeed</text><text x="292" y="443" font-family="'IBM Plex Mono', ui-monospace, monospace" font-size="9" fill="#4A5260">ZeRO-optimized training</text></g><g><g><path d="M 51 456 L 252 456 A 14 14 0 0 1 252 484 L 51 484 Z" fill="#FBFBF8" stroke="#078E53" stroke-width="1"></path><path d="M 46 456 L 51 456 L 51 484 L 46 484 Z" fill="#078E53"></path></g><text x="60" y="474" font-family="'Inter', 'Noto Sans JP', system-ui, sans-serif" font-size="12" font-weight="500" fill="#0E1116">Megatron-LM</text><text x="60" y="495" font-family="'IBM Plex Mono', ui-monospace, monospace" font-size="9" fill="#4A5260">tensor · pipeline parallel</text></g><g><g><path d="M 283 456 L 484 456 A 14 14 0 0 1 484 484 L 283 484 Z" fill="#FBFBF8" stroke="#078E53" stroke-width="1"></path><path d="M 278 456 L 283 456 L 283 484 L 278 484 Z" fill="#078E53"></path></g><text x="292" y="474" font-family="'Inter', 'Noto Sans JP', system-ui, sans-serif" font-size="12" font-weight="500" fill="#0E1116">NVIDIA NeMo</text><text x="292" y="495" font-family="'IBM Plex Mono', ui-monospace, monospace" font-size="9" fill="#4A5260">LLM · SFT · RLHF</text></g><g><g><path d="M 51 508 L 252 508 A 14 14 0 0 1 252 536 L 51 536 Z" fill="#FBFBF8" stroke="#078E53" stroke-width="1"></path><path d="M 46 508 L 51 508 L 51 536 L 46 536 Z" fill="#078E53"></path></g><text x="60" y="526" font-family="'Inter', 'Noto Sans JP', system-ui, sans-serif" font-size="12" font-weight="500" fill="#0E1116">HF Transformers</text><text x="60" y="547" font-family="'IBM Plex Mono', ui-monospace, monospace" font-size="9" fill="#4A5260">model hub</text></g><g><g><path d="M 283 508 L 484 508 A 14 14 0 0 1 484 536 L 283 536 Z" fill="#FBFBF8" stroke="#078E53" stroke-width="1"></path><path d="M 278 508 L 283 508 L 283 536 L 278 536 Z" fill="#078E53"></path></g><text x="292" y="526" font-family="'Inter', 'Noto Sans JP', system-ui, sans-serif" font-size="12" font-weight="500" fill="#0E1116">HF Accelerate</text><text x="292" y="547" font-family="'IBM Plex Mono', ui-monospace, monospace" font-size="9" fill="#4A5260">distributed training</text></g><g><g><path d="M 51 560 L 252 560 A 14 14 0 0 1 252 588 L 51 588 Z" fill="#FBFBF8" stroke="#078E53" stroke-width="1"></path><path d="M 46 560 L 51 560 L 51 588 L 46 588 Z" fill="#078E53"></path></g><text x="60" y="578" font-family="'Inter', 'Noto Sans JP', system-ui, sans-serif" font-size="12" font-weight="500" fill="#0E1116">JAX</text><text x="60" y="599" font-family="'IBM Plex Mono', ui-monospace, monospace" font-size="9" fill="#4A5260">autodiff for science</text></g><g><g><path d="M 283 560 L 484 560 A 14 14 0 0 1 484 588 L 283 588 Z" fill="#FBFBF8" stroke="#078E53" stroke-width="1"></path><path d="M 278 560 L 283 560 L 283 588 L 278 588 Z" fill="#078E53"></path></g><text x="292" y="578" font-family="'Inter', 'Noto Sans JP', system-ui, sans-serif" font-size="12" font-weight="500" fill="#0E1116">Flax</text><text x="292" y="599" font-family="'IBM Plex Mono', ui-monospace, monospace" font-size="9" fill="#4A5260">neural nets on JAX</text></g></g><g><rect x="536" y="362" width="480" height="254" fill="#FBFBF8" stroke="#D4D7DD" stroke-width="0.75" rx="10"></rect><path d="M 546 362 H 1006 A 10 10 0 0 1 1016 372 V 390 H 536 V 372 A 10 10 0 0 1 546 362 Z" fill="#E6F3EC"></path><text x="550" y="381" font-family="'IBM Plex Mono', ui-monospace, monospace" font-size="10" letter-spacing="2.2" fill="#078E53">5.4 · LLM INFERENCE SERVICES</text><g><g><path d="M 555 404 L 756 404 A 14 14 0 0 1 756 432 L 555 432 Z" fill="#FBFBF8" stroke="#078E53" stroke-width="1"></path><path d="M 550 404 L 555 404 L 555 432 L 550 432 Z" fill="#078E53"></path></g><text x="564" y="422" font-family="'Inter', 'Noto Sans JP', system-ui, sans-serif" font-size="12" font-weight="500" fill="#0E1116">vLLM</text><text x="564" y="443" font-family="'IBM Plex Mono', ui-monospace, monospace" font-size="9" fill="#4A5260">PagedAttention · batching</text></g><g><g><path d="M 787 404 L 988 404 A 14 14 0 0 1 988 432 L 787 432 Z" fill="#FBFBF8" stroke="#078E53" stroke-width="1"></path><path d="M 782 404 L 787 404 L 787 432 L 782 432 Z" fill="#078E53"></path></g><text x="796" y="422" font-family="'Inter', 'Noto Sans JP', system-ui, sans-serif" font-size="12" font-weight="500" fill="#0E1116">TensorRT-LLM</text><text x="796" y="443" font-family="'IBM Plex Mono', ui-monospace, monospace" font-size="9" fill="#4A5260">NVIDIA optimized engine</text></g><g><g><path d="M 555 456 L 756 456 A 14 14 0 0 1 756 484 L 555 484 Z" fill="#FBFBF8" stroke="#078E53" stroke-width="1"></path><path d="M 550 456 L 555 456 L 555 484 L 550 484 Z" fill="#078E53"></path></g><text x="564" y="474" font-family="'Inter', 'Noto Sans JP', system-ui, sans-serif" font-size="12" font-weight="500" fill="#0E1116">Triton Inference Srv</text><text x="564" y="495" font-family="'IBM Plex Mono', ui-monospace, monospace" font-size="9" fill="#4A5260">multi-model serving</text></g><g><g><path d="M 787 456 L 988 456 A 14 14 0 0 1 988 484 L 787 484 Z" fill="#FBFBF8" stroke="#078E53" stroke-width="1"></path><path d="M 782 456 L 787 456 L 787 484 L 782 484 Z" fill="#078E53"></path></g><text x="796" y="474" font-family="'Inter', 'Noto Sans JP', system-ui, sans-serif" font-size="12" font-weight="500" fill="#0E1116">NVIDIA Dynamo</text><text x="796" y="495" font-family="'IBM Plex Mono', ui-monospace, monospace" font-size="9" fill="#4A5260">distributed orchestration</text></g><g><g><path d="M 555 508 L 756 508 A 14 14 0 0 1 756 536 L 555 536 Z" fill="#FBFBF8" stroke="#078E53" stroke-width="1"></path><path d="M 550 508 L 555 508 L 555 536 L 550 536 Z" fill="#078E53"></path></g><text x="564" y="526" font-family="'Inter', 'Noto Sans JP', system-ui, sans-serif" font-size="12" font-weight="500" fill="#0E1116">NVIDIA NIM</text><text x="564" y="547" font-family="'IBM Plex Mono', ui-monospace, monospace" font-size="9" fill="#4A5260">pre-optimized microservices</text></g></g><g><rect x="32" y="640" width="984" height="261" fill="#FBFBF8" stroke="#D4D7DD" stroke-width="0.75" rx="10"></rect><path d="M 42 640 H 1006 A 10 10 0 0 1 1016 650 V 668 H 32 V 650 A 10 10 0 0 1 42 640 Z" fill="#F6EFD9"></path><text x="46" y="659" font-family="'IBM Plex Mono', ui-monospace, monospace" font-size="10" letter-spacing="2.2" fill="#8A6512">5.5 · AVAILABLE AI MODELS</text><text x="46" y="692" font-family="'IBM Plex Mono', ui-monospace, monospace" font-size="9" letter-spacing="2.4" fill="#8A6512" opacity="0.9">LARGE LANGUAGE MODELS</text><line x1="46" y1="803" x2="1002" y2="803" stroke="#EAECEF" stroke-width="0.75"></line><text x="46" y="835" font-family="'IBM Plex Mono', ui-monospace, monospace" font-size="9" letter-spacing="2.4" fill="#8A6512" opacity="0.9">SCIENTIFIC · DOMAIN-SPECIFIC</text><g><g><path d="M 51 702 L 252 702 A 14 14 0 0 1 252 730 L 51 730 Z" fill="#FBFBF8" stroke="#8A6512" stroke-width="1"></path><path d="M 46 702 L 51 702 L 51 730 L 46 730 Z" fill="#8A6512"></path></g><text x="60" y="720" font-family="'Inter', 'Noto Sans JP', system-ui, sans-serif" font-size="12" font-weight="500" fill="#0E1116">Llama 4</text><text x="60" y="741" font-family="'IBM Plex Mono', ui-monospace, monospace" font-size="9" fill="#4A5260">Meta</text></g><g><g><path d="M 293 702 L 494 702 A 14 14 0 0 1 494 730 L 293 730 Z" fill="#FBFBF8" stroke="#8A6512" stroke-width="1"></path><path d="M 288 702 L 293 702 L 293 730 L 288 730 Z" fill="#8A6512"></path></g><text x="302" y="720" font-family="'Inter', 'Noto Sans JP', system-ui, sans-serif" font-size="12" font-weight="500" fill="#0E1116">Qwen 3.6</text><text x="302" y="741" font-family="'IBM Plex Mono', ui-monospace, monospace" font-size="9" fill="#4A5260">Alibaba</text></g><g><g><path d="M 535 702 L 736 702 A 14 14 0 0 1 736 730 L 535 730 Z" fill="#FBFBF8" stroke="#8A6512" stroke-width="1"></path><path d="M 530 702 L 535 702 L 535 730 L 530 730 Z" fill="#8A6512"></path></g><text x="544" y="720" font-family="'Inter', 'Noto Sans JP', system-ui, sans-serif" font-size="12" font-weight="500" fill="#0E1116">Nemotron</text><text x="544" y="741" font-family="'IBM Plex Mono', ui-monospace, monospace" font-size="9" fill="#4A5260">NVIDIA</text></g><g><g><path d="M 777 702 L 978 702 A 14 14 0 0 1 978 730 L 777 730 Z" fill="#FBFBF8" stroke="#8A6512" stroke-width="1"></path><path d="M 772 702 L 777 702 L 777 730 L 772 730 Z" fill="#8A6512"></path></g><text x="786" y="720" font-family="'Inter', 'Noto Sans JP', system-ui, sans-serif" font-size="12" font-weight="500" fill="#0E1116">DeepSeek-V4</text><text x="786" y="741" font-family="'IBM Plex Mono', ui-monospace, monospace" font-size="9" fill="#4A5260">DeepSeek</text></g><g><g><path d="M 51 754 L 252 754 A 14 14 0 0 1 252 782 L 51 782 Z" fill="#FBFBF8" stroke="#8A6512" stroke-width="1"></path><path d="M 46 754 L 51 754 L 51 782 L 46 782 Z" fill="#8A6512"></path></g><text x="60" y="772" font-family="'Inter', 'Noto Sans JP', system-ui, sans-serif" font-size="12" font-weight="500" fill="#0E1116">Gemma 4</text><text x="60" y="793" font-family="'IBM Plex Mono', ui-monospace, monospace" font-size="9" fill="#4A5260">Google</text></g><g><g><path d="M 293 754 L 494 754 A 14 14 0 0 1 494 782 L 293 782 Z" fill="#FBFBF8" stroke="#8A6512" stroke-width="1"></path><path d="M 288 754 L 293 754 L 293 782 L 288 782 Z" fill="#8A6512"></path></g><text x="302" y="772" font-family="'Inter', 'Noto Sans JP', system-ui, sans-serif" font-size="12" font-weight="500" fill="#0E1116">Kimi K2.6</text><text x="302" y="793" font-family="'IBM Plex Mono', ui-monospace, monospace" font-size="9" fill="#4A5260">Moonshot AI</text></g><g><g><path d="M 535 754 L 736 754 A 14 14 0 0 1 736 782 L 535 782 Z" fill="#FBFBF8" stroke="#8A6512" stroke-width="1"></path><path d="M 530 754 L 535 754 L 535 782 L 530 782 Z" fill="#8A6512"></path></g><text x="544" y="772" font-family="'Inter', 'Noto Sans JP', system-ui, sans-serif" font-size="12" font-weight="500" fill="#0E1116">Mistral Large 3</text><text x="544" y="793" font-family="'IBM Plex Mono', ui-monospace, monospace" font-size="9" fill="#4A5260">Mistral AI</text></g><g><g><path d="M 777 754 L 978 754 A 14 14 0 0 1 978 782 L 777 782 Z" fill="#FBFBF8" stroke="#8A6512" stroke-width="1"></path><path d="M 772 754 L 777 754 L 777 782 L 772 782 Z" fill="#8A6512"></path></g><text x="786" y="772" font-family="'Inter', 'Noto Sans JP', system-ui, sans-serif" font-size="12" font-weight="500" fill="#0E1116">GLM-5.1</text><text x="786" y="793" font-family="'IBM Plex Mono', ui-monospace, monospace" font-size="9" fill="#4A5260">Z.ai</text></g><g><g><path d="M 51 845 L 252 845 A 14 14 0 0 1 252 873 L 51 873 Z" fill="#FBFBF8" stroke="#8A6512" stroke-width="1"></path><path d="M 46 845 L 51 845 L 51 873 L 46 873 Z" fill="#8A6512"></path></g><text x="60" y="863" font-family="'Inter', 'Noto Sans JP', system-ui, sans-serif" font-size="12" font-weight="500" fill="#0E1116">NVIDIA BioNeMo</text><text x="60" y="884" font-family="'IBM Plex Mono', ui-monospace, monospace" font-size="9" fill="#4A5260">drug · molecule</text></g><g><g><path d="M 293 845 L 494 845 A 14 14 0 0 1 494 873 L 293 873 Z" fill="#FBFBF8" stroke="#8A6512" stroke-width="1"></path><path d="M 288 845 L 293 845 L 293 873 L 288 873 Z" fill="#8A6512"></path></g><text x="302" y="863" font-family="'Inter', 'Noto Sans JP', system-ui, sans-serif" font-size="12" font-weight="500" fill="#0E1116">NVIDIA Earth-2</text><text x="302" y="884" font-family="'IBM Plex Mono', ui-monospace, monospace" font-size="9" fill="#4A5260">climate · weather</text></g><g><g><path d="M 535 845 L 736 845 A 14 14 0 0 1 736 873 L 535 873 Z" fill="#FBFBF8" stroke="#8A6512" stroke-width="1"></path><path d="M 530 845 L 535 845 L 535 873 L 530 873 Z" fill="#8A6512"></path></g><text x="544" y="863" font-family="'Inter', 'Noto Sans JP', system-ui, sans-serif" font-size="12" font-weight="500" fill="#0E1116">NVIDIA NIM catalog</text><text x="544" y="884" font-family="'IBM Plex Mono', ui-monospace, monospace" font-size="9" fill="#4A5260">domain-tuned models</text></g></g><g><rect x="32" y="925" width="480" height="417" fill="#FBFBF8" stroke="#D4D7DD" stroke-width="0.75" rx="10"></rect><path d="M 42 925 H 502 A 10 10 0 0 1 512 935 V 953 H 32 V 935 A 10 10 0 0 1 42 925 Z" fill="#E2E4E8"></path><text x="46" y="944" font-family="'IBM Plex Mono', ui-monospace, monospace" font-size="10" letter-spacing="2.2" fill="#0E1116">5.6 · RAG · AGENT FOUNDATION</text><text x="46" y="977" font-family="'IBM Plex Mono', ui-monospace, monospace" font-size="9" letter-spacing="2.4" fill="#0E1116" opacity="0.9">GATEWAY · RAG</text><line x1="46" y1="1140" x2="498" y2="1140" stroke="#EAECEF" stroke-width="0.75"></line><text x="46" y="1172" font-family="'IBM Plex Mono', ui-monospace, monospace" font-size="9" letter-spacing="2.4" fill="#0E1116" opacity="0.9">AGENT FRAMEWORKS</text><g><g><path d="M 51 987 L 252 987 A 14 14 0 0 1 252 1015 L 51 1015 Z" fill="#FBFBF8" stroke="#0E1116" stroke-width="1"></path><path d="M 46 987 L 51 987 L 51 1015 L 46 1015 Z" fill="#0E1116"></path></g><text x="60" y="1005" font-family="'Inter', 'Noto Sans JP', system-ui, sans-serif" font-size="12" font-weight="500" fill="#0E1116">RiVault</text><text x="60" y="1026" font-family="'IBM Plex Mono', ui-monospace, monospace" font-size="9" fill="#4A5260">RIKEN LLM gateway</text></g><g><g><path d="M 283 987 L 484 987 A 14 14 0 0 1 484 1015 L 283 1015 Z" fill="#FBFBF8" stroke="#0E1116" stroke-width="1"></path><path d="M 278 987 L 283 987 L 283 1015 L 278 1015 Z" fill="#0E1116"></path></g><text x="292" y="1005" font-family="'Inter', 'Noto Sans JP', system-ui, sans-serif" font-size="12" font-weight="500" fill="#0E1116">RagFlow</text><text x="292" y="1026" font-family="'IBM Plex Mono', ui-monospace, monospace" font-size="9" fill="#4A5260">RAG pipeline</text></g><g><g><path d="M 51 1039 L 252 1039 A 14 14 0 0 1 252 1067 L 51 1067 Z" fill="#FBFBF8" stroke="#0E1116" stroke-width="1"></path><path d="M 46 1039 L 51 1039 L 51 1067 L 46 1067 Z" fill="#0E1116"></path></g><text x="60" y="1057" font-family="'Inter', 'Noto Sans JP', system-ui, sans-serif" font-size="12" font-weight="500" fill="#0E1116">LlamaIndex</text><text x="60" y="1078" font-family="'IBM Plex Mono', ui-monospace, monospace" font-size="9" fill="#4A5260">KB · retrieval</text></g><g><g><path d="M 283 1039 L 484 1039 A 14 14 0 0 1 484 1067 L 283 1067 Z" fill="#FBFBF8" stroke="#0E1116" stroke-width="1"></path><path d="M 278 1039 L 283 1039 L 283 1067 L 278 1067 Z" fill="#0E1116"></path></g><text x="292" y="1057" font-family="'Inter', 'Noto Sans JP', system-ui, sans-serif" font-size="12" font-weight="500" fill="#0E1116">Haystack</text><text x="292" y="1078" font-family="'IBM Plex Mono', ui-monospace, monospace" font-size="9" fill="#4A5260">RAG toolkit</text></g><g><g><path d="M 51 1091 L 252 1091 A 14 14 0 0 1 252 1119 L 51 1119 Z" fill="#FBFBF8" stroke="#0E1116" stroke-width="1"></path><path d="M 46 1091 L 51 1091 L 51 1119 L 46 1119 Z" fill="#0E1116"></path></g><text x="60" y="1109" font-family="'Inter', 'Noto Sans JP', system-ui, sans-serif" font-size="12" font-weight="500" fill="#0E1116">Hatch</text><text x="60" y="1130" font-family="'IBM Plex Mono', ui-monospace, monospace" font-size="9" fill="#4A5260">MCP tools</text></g><g><g><path d="M 51 1182 L 252 1182 A 14 14 0 0 1 252 1210 L 51 1210 Z" fill="#FBFBF8" stroke="#0E1116" stroke-width="1"></path><path d="M 46 1182 L 51 1182 L 51 1210 L 46 1210 Z" fill="#0E1116"></path></g><text x="60" y="1200" font-family="'Inter', 'Noto Sans JP', system-ui, sans-serif" font-size="12" font-weight="500" fill="#0E1116">LangGraph</text><text x="60" y="1221" font-family="'IBM Plex Mono', ui-monospace, monospace" font-size="9" fill="#4A5260">orchestration</text></g><g><g><path d="M 283 1182 L 484 1182 A 14 14 0 0 1 484 1210 L 283 1210 Z" fill="#FBFBF8" stroke="#0E1116" stroke-width="1"></path><path d="M 278 1182 L 283 1182 L 283 1210 L 278 1210 Z" fill="#0E1116"></path></g><text x="292" y="1200" font-family="'Inter', 'Noto Sans JP', system-ui, sans-serif" font-size="12" font-weight="500" fill="#0E1116">Pydantic AI</text><text x="292" y="1221" font-family="'IBM Plex Mono', ui-monospace, monospace" font-size="9" fill="#4A5260">orchestration</text></g><g><g><path d="M 51 1234 L 252 1234 A 14 14 0 0 1 252 1262 L 51 1262 Z" fill="#FBFBF8" stroke="#0E1116" stroke-width="1"></path><path d="M 46 1234 L 51 1234 L 51 1262 L 46 1262 Z" fill="#0E1116"></path></g><text x="60" y="1252" font-family="'Inter', 'Noto Sans JP', system-ui, sans-serif" font-size="12" font-weight="500" fill="#0E1116">NeMo Guardrails</text><text x="60" y="1273" font-family="'IBM Plex Mono', ui-monospace, monospace" font-size="9" fill="#4A5260">safety constraints</text></g><g><g><path d="M 283 1234 L 484 1234 A 14 14 0 0 1 484 1262 L 283 1262 Z" fill="#FBFBF8" stroke="#0E1116" stroke-width="1"></path><path d="M 278 1234 L 283 1234 L 283 1262 L 278 1262 Z" fill="#0E1116"></path></g><text x="292" y="1252" font-family="'Inter', 'Noto Sans JP', system-ui, sans-serif" font-size="12" font-weight="500" fill="#0E1116">Inspect AI</text><text x="292" y="1273" font-family="'IBM Plex Mono', ui-monospace, monospace" font-size="9" fill="#4A5260">eval · sandbox</text></g><g><g><path d="M 51 1286 L 252 1286 A 14 14 0 0 1 252 1314 L 51 1314 Z" fill="#FBFBF8" stroke="#0E1116" stroke-width="1"></path><path d="M 46 1286 L 51 1286 L 51 1314 L 46 1314 Z" fill="#0E1116"></path></g><text x="60" y="1304" font-family="'Inter', 'Noto Sans JP', system-ui, sans-serif" font-size="12" font-weight="500" fill="#0E1116">Open Agent Platform</text><text x="60" y="1325" font-family="'IBM Plex Mono', ui-monospace, monospace" font-size="9" fill="#4A5260">GUI environment</text></g><g><g><path d="M 283 1286 L 484 1286 A 14 14 0 0 1 484 1314 L 283 1314 Z" fill="#FBFBF8" stroke="#0E1116" stroke-width="1"></path><path d="M 278 1286 L 283 1286 L 283 1314 L 278 1314 Z" fill="#0E1116"></path></g><text x="292" y="1304" font-family="'Inter', 'Noto Sans JP', system-ui, sans-serif" font-size="12" font-weight="500" fill="#0E1116">LS-DX Co-Scientist</text><text x="292" y="1325" font-family="'IBM Plex Mono', ui-monospace, monospace" font-size="9" fill="#4A5260">drug discovery</text></g></g><g><rect x="536" y="925" width="480" height="417" fill="#FBFBF8" stroke="#D4D7DD" stroke-width="0.75" rx="10"></rect><path d="M 546 925 H 1006 A 10 10 0 0 1 1016 935 V 953 H 536 V 935 A 10 10 0 0 1 546 925 Z" fill="#E2E4E8"></path><text x="550" y="944" font-family="'IBM Plex Mono', ui-monospace, monospace" font-size="10" letter-spacing="2.2" fill="#0E1116">5.7 · AI FOR SCIENCE TOOLING</text><g><g><path d="M 555 967 L 756 967 A 14 14 0 0 1 756 995 L 555 995 Z" fill="#FBFBF8" stroke="#0E1116" stroke-width="1"></path><path d="M 550 967 L 555 967 L 555 995 L 550 995 Z" fill="#0E1116"></path></g><text x="564" y="985" font-family="'Inter', 'Noto Sans JP', system-ui, sans-serif" font-size="12" font-weight="500" fill="#0E1116">Surrogate models</text><text x="564" y="1006" font-family="'IBM Plex Mono', ui-monospace, monospace" font-size="9" fill="#4A5260">fast physics approx.</text></g><g><g><path d="M 787 967 L 988 967 A 14 14 0 0 1 988 995 L 787 995 Z" fill="#FBFBF8" stroke="#0E1116" stroke-width="1"></path><path d="M 782 967 L 787 967 L 787 995 L 782 995 Z" fill="#0E1116"></path></g><text x="796" y="985" font-family="'Inter', 'Noto Sans JP', system-ui, sans-serif" font-size="12" font-weight="500" fill="#0E1116">PINN</text><text x="796" y="1006" font-family="'IBM Plex Mono', ui-monospace, monospace" font-size="9" fill="#4A5260">Physics-Informed NN</text></g><g><g><path d="M 555 1019 L 756 1019 A 14 14 0 0 1 756 1047 L 555 1047 Z" fill="#FBFBF8" stroke="#0E1116" stroke-width="1"></path><path d="M 550 1019 L 555 1019 L 555 1047 L 550 1047 Z" fill="#0E1116"></path></g><text x="564" y="1037" font-family="'Inter', 'Noto Sans JP', system-ui, sans-serif" font-size="12" font-weight="500" fill="#0E1116">AI code translation</text><text x="564" y="1058" font-family="'IBM Plex Mono', ui-monospace, monospace" font-size="9" fill="#4A5260">Fortran/C → GPU</text></g><g><g><path d="M 787 1019 L 988 1019 A 14 14 0 0 1 988 1047 L 787 1047 Z" fill="#FBFBF8" stroke="#0E1116" stroke-width="1"></path><path d="M 782 1019 L 787 1019 L 787 1047 L 782 1047 Z" fill="#0E1116"></path></g><text x="796" y="1037" font-family="'Inter', 'Noto Sans JP', system-ui, sans-serif" font-size="12" font-weight="500" fill="#0E1116">Large-scale training</text><text x="796" y="1058" font-family="'IBM Plex Mono', ui-monospace, monospace" font-size="9" fill="#4A5260">data · model · pipeline</text></g><g><g><path d="M 555 1071 L 756 1071 A 14 14 0 0 1 756 1099 L 555 1099 Z" fill="#FBFBF8" stroke="#0E1116" stroke-width="1"></path><path d="M 550 1071 L 555 1071 L 555 1099 L 550 1099 Z" fill="#0E1116"></path></g><text x="564" y="1089" font-family="'Inter', 'Noto Sans JP', system-ui, sans-serif" font-size="12" font-weight="500" fill="#0E1116">Distributed inference</text><text x="564" y="1110" font-family="'IBM Plex Mono', ui-monospace, monospace" font-size="9" fill="#4A5260">agentic workflows</text></g><g><g><path d="M 787 1071 L 988 1071 A 14 14 0 0 1 988 1099 L 787 1099 Z" fill="#FBFBF8" stroke="#0E1116" stroke-width="1"></path><path d="M 782 1071 L 787 1071 L 787 1099 L 782 1099 Z" fill="#0E1116"></path></g><text x="796" y="1089" font-family="'Inter', 'Noto Sans JP', system-ui, sans-serif" font-size="12" font-weight="500" fill="#0E1116">Auto data analysis</text><text x="796" y="1110" font-family="'IBM Plex Mono', ui-monospace, monospace" font-size="9" fill="#4A5260">experimental pipelines</text></g></g></g></svg>