<?xml version="1.0" encoding="UTF-8" standalone="no"?>
<svg xmlns="http://www.w3.org/2000/svg" width="1100" height="733" viewBox="0 0 1100 733" style="display: block;"><rect width="1100" height="733" fill="#FBFBF8"></rect><rect x="0" y="0" width="1100" height="3" fill="#111987"></rect><g transform="translate(989.8856209150326,23) scale(0.15250544662309368)"><g><g><path fill="#111987" d="M110.14,113.86c-.2,2.47-.86,4.76-1.75,6.93,4.03-3.25,8.12-7.25,12.15-12.3,8.7-11.31,14.09-25.96,14.09-41.33C134.63,30.1,104.59,0,67.53,0S1.62,28.77.36,64.73c-.03.79-.33,6.59-.35,11v74.8s-.02,1.39,0,3.69c.02,3.07.11,7.87.41,13.01.46,7.64,5.09,12.62,11.77,14.39,1.81.47,3.77.72,5.85.72,9.73,0,17.04-5.3,17.62-15,.31-5.14.35-9.95.37-13.01.02-2.23-.05-3.8-.05-3.8v-79.97c-.06-14.01,4.49-20.41,4.49-20.41,5.68-8.95,15.75-14.91,27.07-14.91,17.44,0,31.58,14.14,31.58,31.58,0,.28,0,2.45-.02,2.74-5.21-5.42-15.78-10.67-25.28-10.67-21.1,0-37.79,16.69-37.79,37.79s16.47,37.23,37.57,37.23c1.13,0,2.6-.05,4.3-.2-9.26-3.75-15.5-13.08-14.67-23.57,1.03-12.96,12.37-22.62,25.32-21.6,12.95,1.02,22.63,12.36,21.6,25.32Z"></path><path fill="#078E53" d="M112.34,133.95c-13.71,0-24.83,11.11-24.83,24.83s11.12,24.82,24.83,24.82,24.82-11.12,24.82-24.82-11.11-24.83-24.82-24.83Z"></path></g><g fill="#111987"><rect x="302.97" y="131.75" width="16.31" height="46.28"></rect><polyline points="248.07 96.65 231.76 96.65 231.76 178.03 248.07 178.03 248.07 96.65"></polyline><rect x="264.48" y="96.65" width="16.3" height="81.38"></rect><polygon points="417.52 120.57 417.52 96.65 401.21 96.65 401.21 118.06 401.21 127.33 401.21 178.03 417.52 178.03 417.52 152.54 417.52 120.57"></polygon><polygon points="459.7 96.65 443.39 96.65 443.39 143.53 429.1 129.24 417.57 140.78 443.39 166.59 443.39 178.03 459.7 178.03 459.75 178.03 459.7 96.65"></polygon><polygon points="292.46 139.2 329 102.59 317.38 90.98 280.85 127.52 292.46 139.2"></polygon><path d="M188.39,111.79c6.87,1.79,11.85,7.87,11.85,15.26,0,2.95-.8,5.71-2.2,8.07-2.75,4.66-8.95,7.99-13.57,8.17h0l22.38,38.83,14.29-8.19-14.94-25.84s.02-.02,0,0c5.49-4.57,10.16-12.83,10.16-20.95s-3.37-15.88-8.81-21.36c-1.25-1.27-2.61-2.42-4.06-3.44,0,0-5.69-4.47-13.83-5.23-6.13-.56-10.71-.47-14.78-.47h-17.14v14.43h16.53c12.6,0,14.12.71,14.12.71"></path><polyline points="157.69 150.1 157.69 123.91 174.01 123.91 174.01 178.03 157.69 178.03 157.69 150.1"></polyline><rect x="335.65" y="96.65" width="49.17" height="15.74"></rect><rect x="335.65" y="162.48" width="49.17" height="15.55"></rect><rect x="335.65" y="129.57" width="49.17" height="15.73"></rect></g></g></g><text x="40" y="45" font-family="'Inter', system-ui, sans-serif" font-size="22" font-weight="600" letter-spacing="-0.3" fill="#0E1116">計算環境システム仕様</text><line x1="40" y1="57" x2="1060" y2="57" stroke="#D4D7DD" stroke-width="1"></line><g><rect x="40" y="74" width="498" height="26" fill="#EEF0FB"></rect><rect x="40" y="80" width="4" height="14" fill="#111987"></rect><line x1="40" y1="100" x2="538" y2="100" stroke="#EAECEF" stroke-width="0.75"></line><text x="52" y="91" font-family="'IBM Plex Mono', ui-monospace, monospace" font-size="9" letter-spacing="1.4" fill="#111987">フロントエンドノード · SUPERMICRO SYS-212HA-TN</text><text x="530" y="91" font-family="'IBM Plex Mono', ui-monospace, monospace" font-size="9" fill="#4A5260" letter-spacing="0.8" text-anchor="end">16台</text><g><text x="48" y="117" font-family="'Inter', system-ui, sans-serif" font-size="12" font-weight="500" fill="#4A5260">CPU</text><text x="168" y="117" font-family="'IBM Plex Mono', ui-monospace, monospace" font-size="10" fill="#0E1116">Intel Xeon 6980P (2.0GHz, 128コア)</text><text x="530" y="117" font-family="'IBM Plex Mono', ui-monospace, monospace" font-size="10" fill="#4A5260" text-anchor="end">× 1 / ノード</text><line x1="40" y1="126" x2="538" y2="126" stroke="#EAECEF" stroke-width="0.5"></line></g><g><text x="48" y="143" font-family="'Inter', system-ui, sans-serif" font-size="12" font-weight="500" fill="#4A5260">メモリ</text><text x="168" y="143" font-family="'IBM Plex Mono', ui-monospace, monospace" font-size="10" fill="#0E1116">1,536 GiB (128 GiB DDR5-6400 RDIMM)</text><text x="530" y="143" font-family="'IBM Plex Mono', ui-monospace, monospace" font-size="10" fill="#4A5260" text-anchor="end">× 12</text><line x1="40" y1="152" x2="538" y2="152" stroke="#EAECEF" stroke-width="0.5"></line></g><g><text x="48" y="168" font-family="'Inter', system-ui, sans-serif" font-size="12" font-weight="500" fill="#4A5260">ディスク</text><text font-family="'IBM Plex Mono', ui-monospace, monospace" font-size="10" fill="#0E1116"><tspan x="168" y="166">1.92 TB NVMe SSD × 2 (RAID 1)</tspan><tspan x="168" dy="14">+  15.3 TB NVMe SSD × 2 (RAID 1)</tspan></text><text x="530" y="168" font-family="'IBM Plex Mono', ui-monospace, monospace" font-size="10" fill="#4A5260" text-anchor="end">—</text><line x1="40" y1="192" x2="538" y2="192" stroke="#EAECEF" stroke-width="0.5"></line></g><g><text x="48" y="209" font-family="'Inter', system-ui, sans-serif" font-size="12" font-weight="500" fill="#4A5260">相互結合網 NW</text><text x="168" y="209" font-family="'IBM Plex Mono', ui-monospace, monospace" font-size="10" fill="#0E1116">InfiniBand NDR200 (200 Gbps)</text><text x="530" y="209" font-family="'IBM Plex Mono', ui-monospace, monospace" font-size="10" fill="#4A5260" text-anchor="end">× 2 / ノード</text><line x1="40" y1="218" x2="538" y2="218" stroke="#EAECEF" stroke-width="0.5"></line></g><g><text x="48" y="235" font-family="'Inter', system-ui, sans-serif" font-size="12" font-weight="500" fill="#4A5260">管理 NW</text><text x="168" y="235" font-family="'IBM Plex Mono', ui-monospace, monospace" font-size="10" fill="#0E1116">100GbE × 2 · 1000BASE-T × 4 · BMC LAN × 1</text><text x="530" y="235" font-family="'IBM Plex Mono', ui-monospace, monospace" font-size="10" fill="#4A5260" text-anchor="end">—</text><line x1="40" y1="244" x2="538" y2="244" stroke="#EAECEF" stroke-width="0.5"></line></g></g><g><rect x="562" y="74" width="498" height="26" fill="#E6F3EC"></rect><rect x="562" y="80" width="4" height="14" fill="#078E53"></rect><line x1="562" y1="100" x2="1060" y2="100" stroke="#EAECEF" stroke-width="0.75"></line><text x="574" y="91" font-family="'IBM Plex Mono', ui-monospace, monospace" font-size="9" letter-spacing="1.4" fill="#078E53">計算ノード · SUPERMICRO PIO-121GL-NBIB-01</text><text x="1052" y="91" font-family="'IBM Plex Mono', ui-monospace, monospace" font-size="9" fill="#4A5260" letter-spacing="0.8" text-anchor="end">400台</text><g><text x="570" y="117" font-family="'Inter', system-ui, sans-serif" font-size="12" font-weight="500" fill="#4A5260">CPU / GPU</text><text x="690" y="117" font-family="'IBM Plex Mono', ui-monospace, monospace" font-size="10" fill="#0E1116">NVIDIA GB200 NVL4 (Grace CPU × 2, B200 × 4)</text><text x="1052" y="117" font-family="'IBM Plex Mono', ui-monospace, monospace" font-size="10" fill="#4A5260" text-anchor="end">—</text><line x1="562" y1="126" x2="1060" y2="126" stroke="#EAECEF" stroke-width="0.5"></line></g><g><text x="570" y="142" font-family="'Inter', system-ui, sans-serif" font-size="12" font-weight="500" fill="#4A5260">メモリ</text><text font-family="'IBM Plex Mono', ui-monospace, monospace" font-size="10" fill="#0E1116"><tspan x="690" y="140">960 GiB LPDDR5X (CPU)</tspan><tspan x="690" dy="14">+  692.8 GiB HBM3e (GPU)</tspan></text><text x="1052" y="142" font-family="'IBM Plex Mono', ui-monospace, monospace" font-size="10" fill="#4A5260" text-anchor="end">CPU×2, GPU×4</text><line x1="562" y1="166" x2="1060" y2="166" stroke="#EAECEF" stroke-width="0.5"></line></g><g><text x="570" y="182" font-family="'Inter', system-ui, sans-serif" font-size="12" font-weight="500" fill="#4A5260">ディスク</text><text font-family="'IBM Plex Mono', ui-monospace, monospace" font-size="10" fill="#0E1116"><tspan x="690" y="180">480 GB NVMe SSD (ブート)</tspan><tspan x="690" dy="14">+  7.68 TB NVMe SSD</tspan></text><text x="1052" y="182" font-family="'IBM Plex Mono', ui-monospace, monospace" font-size="10" fill="#4A5260" text-anchor="end">× 1 / ノード</text><line x1="562" y1="206" x2="1060" y2="206" stroke="#EAECEF" stroke-width="0.5"></line></g><g><text x="570" y="223" font-family="'Inter', system-ui, sans-serif" font-size="12" font-weight="500" fill="#4A5260">相互結合網 NW</text><text x="690" y="223" font-family="'IBM Plex Mono', ui-monospace, monospace" font-size="10" fill="#0E1116">InfiniBand XDR (800 Gbps)</text><text x="1052" y="223" font-family="'IBM Plex Mono', ui-monospace, monospace" font-size="10" fill="#4A5260" text-anchor="end">× 4 / ノード</text><line x1="562" y1="232" x2="1060" y2="232" stroke="#EAECEF" stroke-width="0.5"></line></g><g><text x="570" y="249" font-family="'Inter', system-ui, sans-serif" font-size="12" font-weight="500" fill="#4A5260">管理 NW</text><text x="690" y="249" font-family="'IBM Plex Mono', ui-monospace, monospace" font-size="10" fill="#0E1116">1000BASE-T × 2 ポート · BMC LAN × 1</text><text x="1052" y="249" font-family="'IBM Plex Mono', ui-monospace, monospace" font-size="10" fill="#4A5260" text-anchor="end">—</text><line x1="562" y1="258" x2="1060" y2="258" stroke="#EAECEF" stroke-width="0.5"></line></g></g><line x1="40" y1="272" x2="1060" y2="272" stroke="#D4D7DD" stroke-width="1"></line><g><rect x="40" y="287" width="498" height="26" fill="#F8EDE5"></rect><rect x="40" y="293" width="4" height="14" fill="#7A2E12"></rect><line x1="40" y1="313" x2="538" y2="313" stroke="#EAECEF" stroke-width="0.75"></line><text x="52" y="304" font-family="'IBM Plex Mono', ui-monospace, monospace" font-size="9" letter-spacing="1.4" fill="#7A2E12">FS · DDN ES400X3-NDR200 · LUSTRE · MDS/MDT/OSS/OST</text><text x="530" y="304" font-family="'IBM Plex Mono', ui-monospace, monospace" font-size="9" fill="#4A5260" letter-spacing="0.8" text-anchor="end">2台</text><g><text x="48" y="330" font-family="'Inter', system-ui, sans-serif" font-size="12" font-weight="500" fill="#4A5260">コントローラー</text><text x="168" y="330" font-family="'IBM Plex Mono', ui-monospace, monospace" font-size="10" fill="#0E1116">Active/Active Dual Controller</text><text x="530" y="330" font-family="'IBM Plex Mono', ui-monospace, monospace" font-size="10" fill="#4A5260" text-anchor="end">—</text><line x1="40" y1="339" x2="538" y2="339" stroke="#EAECEF" stroke-width="0.5"></line></g><g><text x="48" y="356" font-family="'Inter', system-ui, sans-serif" font-size="12" font-weight="500" fill="#4A5260">NW / Controller</text><text x="168" y="356" font-family="'IBM Plex Mono', ui-monospace, monospace" font-size="10" fill="#0E1116">4× NDR200 IB or 200GbE</text><text x="530" y="356" font-family="'IBM Plex Mono', ui-monospace, monospace" font-size="10" fill="#4A5260" text-anchor="end">—</text><line x1="40" y1="365" x2="538" y2="365" stroke="#EAECEF" stroke-width="0.5"></line></g><g><text x="48" y="382" font-family="'Inter', system-ui, sans-serif" font-size="12" font-weight="500" fill="#4A5260">キャッシュ</text><text x="168" y="382" font-family="'IBM Plex Mono', ui-monospace, monospace" font-size="10" fill="#0E1116">8 GB Battery-Backup Cache</text><text x="530" y="382" font-family="'IBM Plex Mono', ui-monospace, monospace" font-size="10" fill="#4A5260" text-anchor="end">/ Controller</text><line x1="40" y1="391" x2="538" y2="391" stroke="#EAECEF" stroke-width="0.5"></line></g><g><text x="48" y="408" font-family="'Inter', system-ui, sans-serif" font-size="12" font-weight="500" fill="#4A5260">ドライブ</text><text x="168" y="408" font-family="'IBM Plex Mono', ui-monospace, monospace" font-size="10" fill="#0E1116">30.72 TB TLC NVMe SSD (DWPD 1)</text><text x="530" y="408" font-family="'IBM Plex Mono', ui-monospace, monospace" font-size="10" fill="#4A5260" text-anchor="end">× 23 / 台</text><line x1="40" y1="417" x2="538" y2="417" stroke="#EAECEF" stroke-width="0.5"></line></g></g><g><rect x="40" y="427" width="498" height="26" fill="#F8EDE5"></rect><rect x="40" y="433" width="4" height="14" fill="#7A2E12"></rect><line x1="40" y1="453" x2="538" y2="453" stroke="#EAECEF" stroke-width="0.75"></line><text x="52" y="444" font-family="'IBM Plex Mono', ui-monospace, monospace" font-size="9" letter-spacing="1.4" fill="#7A2E12">FS · メタデータバックアップサーバ · DELL POWEREDGE R760</text><text x="530" y="444" font-family="'IBM Plex Mono', ui-monospace, monospace" font-size="9" fill="#4A5260" letter-spacing="0.8" text-anchor="end">1台</text><g><text x="48" y="470" font-family="'Inter', system-ui, sans-serif" font-size="12" font-weight="500" fill="#4A5260">CPU</text><text x="168" y="470" font-family="'IBM Plex Mono', ui-monospace, monospace" font-size="10" fill="#0E1116">Intel Xeon Silver 4514Y (16コア / 2.0GHz)</text><text x="530" y="470" font-family="'IBM Plex Mono', ui-monospace, monospace" font-size="10" fill="#4A5260" text-anchor="end">× 2</text><line x1="40" y1="479" x2="538" y2="479" stroke="#EAECEF" stroke-width="0.5"></line></g><g><text x="48" y="496" font-family="'Inter', system-ui, sans-serif" font-size="12" font-weight="500" fill="#4A5260">メモリ</text><text x="168" y="496" font-family="'IBM Plex Mono', ui-monospace, monospace" font-size="10" fill="#0E1116">256 GiB (16 GiB DDR5-4400 RDIMM)</text><text x="530" y="496" font-family="'IBM Plex Mono', ui-monospace, monospace" font-size="10" fill="#4A5260" text-anchor="end">× 16</text><line x1="40" y1="505" x2="538" y2="505" stroke="#EAECEF" stroke-width="0.5"></line></g><g><text x="48" y="522" font-family="'Inter', system-ui, sans-serif" font-size="12" font-weight="500" fill="#4A5260">OS ドライブ</text><text x="168" y="522" font-family="'IBM Plex Mono', ui-monospace, monospace" font-size="10" fill="#0E1116">M.2 480 GB SSD (RAID 1) — BOSS-N1</text><text x="530" y="522" font-family="'IBM Plex Mono', ui-monospace, monospace" font-size="10" fill="#4A5260" text-anchor="end">—</text><line x1="40" y1="531" x2="538" y2="531" stroke="#EAECEF" stroke-width="0.5"></line></g><g><text x="48" y="548" font-family="'Inter', system-ui, sans-serif" font-size="12" font-weight="500" fill="#4A5260">データドライブ</text><text x="168" y="548" font-family="'IBM Plex Mono', ui-monospace, monospace" font-size="10" fill="#0E1116">4 TB NL-SAS HDD (RAID 6)</text><text x="530" y="548" font-family="'IBM Plex Mono', ui-monospace, monospace" font-size="10" fill="#4A5260" text-anchor="end">× 8</text><line x1="40" y1="557" x2="538" y2="557" stroke="#EAECEF" stroke-width="0.5"></line></g><g><text x="48" y="574" font-family="'Inter', system-ui, sans-serif" font-size="12" font-weight="500" fill="#4A5260">RAID</text><text x="168" y="574" font-family="'IBM Plex Mono', ui-monospace, monospace" font-size="10" fill="#0E1116">PERC RAID Controller</text><text x="530" y="574" font-family="'IBM Plex Mono', ui-monospace, monospace" font-size="10" fill="#4A5260" text-anchor="end">× 1</text><line x1="40" y1="583" x2="538" y2="583" stroke="#EAECEF" stroke-width="0.5"></line></g><g><text x="48" y="600" font-family="'Inter', system-ui, sans-serif" font-size="12" font-weight="500" fill="#4A5260">ネットワーク</text><text x="168" y="600" font-family="'IBM Plex Mono', ui-monospace, monospace" font-size="10" fill="#0E1116">10/100/1000BASE-T Dual-port Onboard</text><text x="530" y="600" font-family="'IBM Plex Mono', ui-monospace, monospace" font-size="10" fill="#4A5260" text-anchor="end">× 1</text><line x1="40" y1="609" x2="538" y2="609" stroke="#EAECEF" stroke-width="0.5"></line></g><g><text x="48" y="626" font-family="'Inter', system-ui, sans-serif" font-size="12" font-weight="500" fill="#4A5260">NIC</text><text x="168" y="626" font-family="'IBM Plex Mono', ui-monospace, monospace" font-size="10" fill="#0E1116">NVIDIA ConnectX-7 HHHL Adapter Card</text><text x="530" y="626" font-family="'IBM Plex Mono', ui-monospace, monospace" font-size="10" fill="#4A5260" text-anchor="end">× 1</text><line x1="40" y1="635" x2="538" y2="635" stroke="#EAECEF" stroke-width="0.5"></line></g><g><text x="48" y="652" font-family="'Inter', system-ui, sans-serif" font-size="12" font-weight="500" fill="#4A5260">管理</text><text x="168" y="652" font-family="'IBM Plex Mono', ui-monospace, monospace" font-size="10" fill="#0E1116">iDRAC9</text><text x="530" y="652" font-family="'IBM Plex Mono', ui-monospace, monospace" font-size="10" fill="#4A5260" text-anchor="end">× 1</text><line x1="40" y1="661" x2="538" y2="661" stroke="#EAECEF" stroke-width="0.5"></line></g><g><text x="48" y="678" font-family="'Inter', system-ui, sans-serif" font-size="12" font-weight="500" fill="#4A5260">電源</text><text x="168" y="678" font-family="'IBM Plex Mono', ui-monospace, monospace" font-size="10" fill="#0E1116">1,400 W PSU</text><text x="530" y="678" font-family="'IBM Plex Mono', ui-monospace, monospace" font-size="10" fill="#4A5260" text-anchor="end">× 2</text><line x1="40" y1="687" x2="538" y2="687" stroke="#EAECEF" stroke-width="0.5"></line></g></g><g><rect x="562" y="287" width="498" height="26" fill="#F8EDE5"></rect><rect x="562" y="293" width="4" height="14" fill="#7A2E12"></rect><line x1="562" y1="313" x2="1060" y2="313" stroke="#EAECEF" stroke-width="0.75"></line><text x="574" y="304" font-family="'IBM Plex Mono', ui-monospace, monospace" font-size="9" letter-spacing="1.4" fill="#7A2E12">FS · MONITORING サーバ · DELL POWEREDGE R660</text><text x="1052" y="304" font-family="'IBM Plex Mono', ui-monospace, monospace" font-size="9" fill="#4A5260" letter-spacing="0.8" text-anchor="end">1台</text><g><text x="570" y="330" font-family="'Inter', system-ui, sans-serif" font-size="12" font-weight="500" fill="#4A5260">CPU</text><text x="690" y="330" font-family="'IBM Plex Mono', ui-monospace, monospace" font-size="10" fill="#0E1116">Intel Xeon Gold 6526Y (16コア / 2.8GHz)</text><text x="1052" y="330" font-family="'IBM Plex Mono', ui-monospace, monospace" font-size="10" fill="#4A5260" text-anchor="end">× 2</text><line x1="562" y1="339" x2="1060" y2="339" stroke="#EAECEF" stroke-width="0.5"></line></g><g><text x="570" y="356" font-family="'Inter', system-ui, sans-serif" font-size="12" font-weight="500" fill="#4A5260">メモリ</text><text x="690" y="356" font-family="'IBM Plex Mono', ui-monospace, monospace" font-size="10" fill="#0E1116">512 GiB (32 GiB DDR5-5200 RDIMM)</text><text x="1052" y="356" font-family="'IBM Plex Mono', ui-monospace, monospace" font-size="10" fill="#4A5260" text-anchor="end">× 16</text><line x1="562" y1="365" x2="1060" y2="365" stroke="#EAECEF" stroke-width="0.5"></line></g><g><text x="570" y="382" font-family="'Inter', system-ui, sans-serif" font-size="12" font-weight="500" fill="#4A5260">OS ドライブ</text><text x="690" y="382" font-family="'IBM Plex Mono', ui-monospace, monospace" font-size="10" fill="#0E1116">M.2 480 GB SSD (RAID 1) — BOSS-N1</text><text x="1052" y="382" font-family="'IBM Plex Mono', ui-monospace, monospace" font-size="10" fill="#4A5260" text-anchor="end">—</text><line x1="562" y1="391" x2="1060" y2="391" stroke="#EAECEF" stroke-width="0.5"></line></g><g><text x="570" y="408" font-family="'Inter', system-ui, sans-serif" font-size="12" font-weight="500" fill="#4A5260">データドライブ</text><text x="690" y="408" font-family="'IBM Plex Mono', ui-monospace, monospace" font-size="10" fill="#0E1116">1.92 TB SAS SSD (RAID 5)</text><text x="1052" y="408" font-family="'IBM Plex Mono', ui-monospace, monospace" font-size="10" fill="#4A5260" text-anchor="end">× 10</text><line x1="562" y1="417" x2="1060" y2="417" stroke="#EAECEF" stroke-width="0.5"></line></g><g><text x="570" y="434" font-family="'Inter', system-ui, sans-serif" font-size="12" font-weight="500" fill="#4A5260">RAID</text><text x="690" y="434" font-family="'IBM Plex Mono', ui-monospace, monospace" font-size="10" fill="#0E1116">PERC RAID Controller</text><text x="1052" y="434" font-family="'IBM Plex Mono', ui-monospace, monospace" font-size="10" fill="#4A5260" text-anchor="end">× 1</text><line x1="562" y1="443" x2="1060" y2="443" stroke="#EAECEF" stroke-width="0.5"></line></g><g><text x="570" y="460" font-family="'Inter', system-ui, sans-serif" font-size="12" font-weight="500" fill="#4A5260">ネットワーク</text><text x="690" y="460" font-family="'IBM Plex Mono', ui-monospace, monospace" font-size="10" fill="#0E1116">10/100/1000BASE-T Dual-port Onboard</text><text x="1052" y="460" font-family="'IBM Plex Mono', ui-monospace, monospace" font-size="10" fill="#4A5260" text-anchor="end">× 1</text><line x1="562" y1="469" x2="1060" y2="469" stroke="#EAECEF" stroke-width="0.5"></line></g><g><text x="570" y="486" font-family="'Inter', system-ui, sans-serif" font-size="12" font-weight="500" fill="#4A5260">NIC</text><text x="690" y="486" font-family="'IBM Plex Mono', ui-monospace, monospace" font-size="10" fill="#0E1116">NVIDIA ConnectX-7 HHHL Adapter Card</text><text x="1052" y="486" font-family="'IBM Plex Mono', ui-monospace, monospace" font-size="10" fill="#4A5260" text-anchor="end">× 1</text><line x1="562" y1="495" x2="1060" y2="495" stroke="#EAECEF" stroke-width="0.5"></line></g><g><text x="570" y="512" font-family="'Inter', system-ui, sans-serif" font-size="12" font-weight="500" fill="#4A5260">管理</text><text x="690" y="512" font-family="'IBM Plex Mono', ui-monospace, monospace" font-size="10" fill="#0E1116">iDRAC9</text><text x="1052" y="512" font-family="'IBM Plex Mono', ui-monospace, monospace" font-size="10" fill="#4A5260" text-anchor="end">× 1</text><line x1="562" y1="521" x2="1060" y2="521" stroke="#EAECEF" stroke-width="0.5"></line></g><g><text x="570" y="538" font-family="'Inter', system-ui, sans-serif" font-size="12" font-weight="500" fill="#4A5260">電源</text><text x="690" y="538" font-family="'IBM Plex Mono', ui-monospace, monospace" font-size="10" fill="#0E1116">1,100 W PSU</text><text x="1052" y="538" font-family="'IBM Plex Mono', ui-monospace, monospace" font-size="10" fill="#4A5260" text-anchor="end">× 2</text><line x1="562" y1="547" x2="1060" y2="547" stroke="#EAECEF" stroke-width="0.5"></line></g><g><text x="570" y="564" font-family="'Inter', system-ui, sans-serif" font-size="12" font-weight="500" fill="#4A5260">監視 SW</text><text x="690" y="564" font-family="'IBM Plex Mono', ui-monospace, monospace" font-size="10" fill="#0E1116">Barreleye Monitoring Software</text><text x="1052" y="564" font-family="'IBM Plex Mono', ui-monospace, monospace" font-size="10" fill="#4A5260" text-anchor="end">—</text><line x1="562" y1="573" x2="1060" y2="573" stroke="#EAECEF" stroke-width="0.5"></line></g></g><g><rect x="562" y="583" width="498" height="26" fill="#ECEDF0"></rect><rect x="562" y="589" width="4" height="14" fill="#0E1116"></rect><line x1="562" y1="609" x2="1060" y2="609" stroke="#EAECEF" stroke-width="0.75"></line><text x="574" y="600" font-family="'IBM Plex Mono', ui-monospace, monospace" font-size="9" letter-spacing="1.4" fill="#0E1116">相互結合網 · NVIDIA QUANTUM X-800 Q3401 · 計算ノード側</text><text x="1052" y="600" font-family="'IBM Plex Mono', ui-monospace, monospace" font-size="9" fill="#4A5260" letter-spacing="0.8" text-anchor="end">23台</text><g><text x="570" y="626" font-family="'Inter', system-ui, sans-serif" font-size="12" font-weight="500" fill="#4A5260">ポート</text><text x="690" y="626" font-family="'IBM Plex Mono', ui-monospace, monospace" font-size="10" fill="#0E1116">InfiniBand XDR 800 Gbps × 144 (OSFP × 72)</text><text x="1052" y="626" font-family="'IBM Plex Mono', ui-monospace, monospace" font-size="10" fill="#4A5260" text-anchor="end">—</text><line x1="562" y1="635" x2="1060" y2="635" stroke="#EAECEF" stroke-width="0.5"></line></g></g><g><rect x="562" y="645" width="498" height="26" fill="#ECEDF0"></rect><rect x="562" y="651" width="4" height="14" fill="#0E1116"></rect><line x1="562" y1="671" x2="1060" y2="671" stroke="#EAECEF" stroke-width="0.75"></line><text x="574" y="662" font-family="'IBM Plex Mono', ui-monospace, monospace" font-size="9" letter-spacing="1.4" fill="#0E1116">相互結合網 · NVIDIA QUANTUM X-800 Q3200 · FE + FS 側</text><text x="1052" y="662" font-family="'IBM Plex Mono', ui-monospace, monospace" font-size="9" fill="#4A5260" letter-spacing="0.8" text-anchor="end">2台</text><g><text x="570" y="688" font-family="'Inter', system-ui, sans-serif" font-size="12" font-weight="500" fill="#4A5260">ポート</text><text x="690" y="688" font-family="'IBM Plex Mono', ui-monospace, monospace" font-size="10" fill="#0E1116">InfiniBand XDR 800 Gbps × 72 (OSFP × 36)</text><text x="1052" y="688" font-family="'IBM Plex Mono', ui-monospace, monospace" font-size="10" fill="#4A5260" text-anchor="end">—</text><line x1="562" y1="697" x2="1060" y2="697" stroke="#EAECEF" stroke-width="0.5"></line></g></g></svg>