<?xml version="1.0" encoding="UTF-8" standalone="no"?>
<svg xmlns="http://www.w3.org/2000/svg" width="560" height="543" viewBox="0 0 560 543" style="display: block;"><rect width="560" height="543" fill="#FBFBF8"></rect><rect x="0" y="0" width="560" height="3" fill="#111987"></rect><g transform="translate(457.8856209150327,21) scale(0.15250544662309368)"><g><g><path fill="#111987" d="M110.14,113.86c-.2,2.47-.86,4.76-1.75,6.93,4.03-3.25,8.12-7.25,12.15-12.3,8.7-11.31,14.09-25.96,14.09-41.33C134.63,30.1,104.59,0,67.53,0S1.62,28.77.36,64.73c-.03.79-.33,6.59-.35,11v74.8s-.02,1.39,0,3.69c.02,3.07.11,7.87.41,13.01.46,7.64,5.09,12.62,11.77,14.39,1.81.47,3.77.72,5.85.72,9.73,0,17.04-5.3,17.62-15,.31-5.14.35-9.95.37-13.01.02-2.23-.05-3.8-.05-3.8v-79.97c-.06-14.01,4.49-20.41,4.49-20.41,5.68-8.95,15.75-14.91,27.07-14.91,17.44,0,31.58,14.14,31.58,31.58,0,.28,0,2.45-.02,2.74-5.21-5.42-15.78-10.67-25.28-10.67-21.1,0-37.79,16.69-37.79,37.79s16.47,37.23,37.57,37.23c1.13,0,2.6-.05,4.3-.2-9.26-3.75-15.5-13.08-14.67-23.57,1.03-12.96,12.37-22.62,25.32-21.6,12.95,1.02,22.63,12.36,21.6,25.32Z"></path><path fill="#078E53" d="M112.34,133.95c-13.71,0-24.83,11.11-24.83,24.83s11.12,24.82,24.83,24.82,24.82-11.12,24.82-24.82-11.11-24.83-24.82-24.83Z"></path></g><g fill="#111987"><rect x="302.97" y="131.75" width="16.31" height="46.28"></rect><polyline points="248.07 96.65 231.76 96.65 231.76 178.03 248.07 178.03 248.07 96.65"></polyline><rect x="264.48" y="96.65" width="16.3" height="81.38"></rect><polygon points="417.52 120.57 417.52 96.65 401.21 96.65 401.21 118.06 401.21 127.33 401.21 178.03 417.52 178.03 417.52 152.54 417.52 120.57"></polygon><polygon points="459.7 96.65 443.39 96.65 443.39 143.53 429.1 129.24 417.57 140.78 443.39 166.59 443.39 178.03 459.7 178.03 459.75 178.03 459.7 96.65"></polygon><polygon points="292.46 139.2 329 102.59 317.38 90.98 280.85 127.52 292.46 139.2"></polygon><path d="M188.39,111.79c6.87,1.79,11.85,7.87,11.85,15.26,0,2.95-.8,5.71-2.2,8.07-2.75,4.66-8.95,7.99-13.57,8.17h0l22.38,38.83,14.29-8.19-14.94-25.84s.02-.02,0,0c5.49-4.57,10.16-12.83,10.16-20.95s-3.37-15.88-8.81-21.36c-1.25-1.27-2.61-2.42-4.06-3.44,0,0-5.69-4.47-13.83-5.23-6.13-.56-10.71-.47-14.78-.47h-17.14v14.43h16.53c12.6,0,14.12.71,14.12.71"></path><polyline points="157.69 150.1 157.69 123.91 174.01 123.91 174.01 178.03 157.69 178.03 157.69 150.1"></polyline><rect x="335.65" y="96.65" width="49.17" height="15.74"></rect><rect x="335.65" y="162.48" width="49.17" height="15.55"></rect><rect x="335.65" y="129.57" width="49.17" height="15.73"></rect></g></g></g><text x="32" y="40" font-family="'IBM Plex Mono', ui-monospace, monospace" font-size="13" font-weight="500" letter-spacing="0.06em" fill="#0E1116">高速共有ファイルシステム</text><line x1="32" y1="50" x2="528" y2="50" stroke="#D4D7DD" stroke-width="1"></line><g><rect x="32" y="65" width="496" height="28" fill="#EEF0FB"></rect><rect x="32" y="72" width="4" height="14" fill="#111987"></rect><text x="44" y="82" font-family="'IBM Plex Mono', ui-monospace, monospace" font-size="10" letter-spacing="1.8" fill="#111987">HARDWARE</text><line x1="32" y1="93" x2="528" y2="93" stroke="#EAECEF" stroke-width="0.75"></line><g><text x="42" y="115" font-family="'Inter', system-ui, sans-serif" font-size="13" font-weight="500" fill="#4A5260">機種</text><text x="242" y="114" font-family="'IBM Plex Mono', ui-monospace, monospace" font-size="12" fill="#0E1116">ES400X3-NDR200</text><line x1="32" y1="127" x2="528" y2="127" stroke="#EAECEF" stroke-width="0.5"></line></g><g><text x="42" y="149" font-family="'Inter', system-ui, sans-serif" font-size="13" font-weight="500" fill="#4A5260">台数</text><text x="242" y="148" font-family="'IBM Plex Mono', ui-monospace, monospace" font-size="12" fill="#0E1116">2</text><line x1="32" y1="161" x2="528" y2="161" stroke="#EAECEF" stroke-width="0.5"></line></g><g><text x="42" y="183" font-family="'Inter', system-ui, sans-serif" font-size="13" font-weight="500" fill="#4A5260">使用ドライブ</text><text x="242" y="182" font-family="'IBM Plex Mono', ui-monospace, monospace" font-size="12" fill="#0E1116">MDT/OST：30.72TB TLC NVMe（DWPD 1）</text><line x1="32" y1="195" x2="528" y2="195" stroke="#EAECEF" stroke-width="0.5"></line></g></g><g><rect x="32" y="209" width="496" height="28" fill="#E6F3EC"></rect><rect x="32" y="216" width="4" height="14" fill="#078E53"></rect><text x="44" y="226" font-family="'IBM Plex Mono', ui-monospace, monospace" font-size="10" letter-spacing="1.8" fill="#078E53">CAPACITY</text><line x1="32" y1="237" x2="528" y2="237" stroke="#EAECEF" stroke-width="0.75"></line><g><text x="42" y="259" font-family="'Inter', system-ui, sans-serif" font-size="13" font-weight="500" fill="#4A5260">物理容量</text><text x="242" y="258" font-family="'IBM Plex Mono', ui-monospace, monospace" font-size="12" fill="#0E1116">1351.68TB（*1）</text><line x1="32" y1="271" x2="528" y2="271" stroke="#EAECEF" stroke-width="0.5"></line></g><g><text x="42" y="293" font-family="'Inter', system-ui, sans-serif" font-size="13" font-weight="500" fill="#4A5260">有効利用容量</text><text x="242" y="292" font-family="'IBM Plex Mono', ui-monospace, monospace" font-size="12" fill="#0E1116">1081.34TB（*2）</text><line x1="32" y1="305" x2="528" y2="305" stroke="#EAECEF" stroke-width="0.5"></line></g></g><g><rect x="32" y="319" width="496" height="28" fill="#F6EFD9"></rect><rect x="32" y="326" width="4" height="14" fill="#8A6512"></rect><text x="44" y="336" font-family="'IBM Plex Mono', ui-monospace, monospace" font-size="10" letter-spacing="1.8" fill="#8A6512">THROUGHPUT</text><line x1="32" y1="347" x2="528" y2="347" stroke="#EAECEF" stroke-width="0.75"></line><g><text x="42" y="369" font-family="'Inter', system-ui, sans-serif" font-size="13" font-weight="500" fill="#4A5260">理論スループット</text><text x="242" y="368" font-family="'IBM Plex Mono', ui-monospace, monospace" font-size="12" fill="#0E1116">400GB/s</text><line x1="32" y1="381" x2="528" y2="381" stroke="#EAECEF" stroke-width="0.5"></line></g><g><text x="42" y="403" font-family="'Inter', system-ui, sans-serif" font-size="13" font-weight="500" fill="#4A5260">Write 実効スループット性能</text><text x="242" y="402" font-family="'IBM Plex Mono', ui-monospace, monospace" font-size="12" fill="#0E1116">180GB/s 以上</text><line x1="32" y1="415" x2="528" y2="415" stroke="#EAECEF" stroke-width="0.5"></line></g><g><text x="42" y="437" font-family="'Inter', system-ui, sans-serif" font-size="13" font-weight="500" fill="#4A5260">Read 実効スループット性能</text><text x="242" y="436" font-family="'IBM Plex Mono', ui-monospace, monospace" font-size="12" fill="#0E1116">260GB/s 以上</text><line x1="32" y1="449" x2="528" y2="449" stroke="#EAECEF" stroke-width="0.5"></line></g></g><g><rect x="32" y="463" width="496" height="28" fill="#F8EDE5"></rect><rect x="32" y="470" width="4" height="14" fill="#7A2E12"></rect><text x="44" y="480" font-family="'IBM Plex Mono', ui-monospace, monospace" font-size="10" letter-spacing="1.8" fill="#7A2E12">DERIVED</text><line x1="32" y1="491" x2="528" y2="491" stroke="#EAECEF" stroke-width="0.75"></line><g><text x="42" y="513" font-family="'Inter', system-ui, sans-serif" font-size="13" font-weight="500" fill="#4A5260">inode 数</text><text x="242" y="512" font-family="'IBM Plex Mono', ui-monospace, monospace" font-size="12" fill="#0E1116">約 56 億個</text><line x1="32" y1="525" x2="528" y2="525" stroke="#EAECEF" stroke-width="0.5"></line></g></g></svg>