<?xml version="1.0" encoding="UTF-8" standalone="no"?>
<svg xmlns="http://www.w3.org/2000/svg" width="860" height="472" viewBox="0 0 860 472" style="display: block;"><rect width="860" height="472" fill="#FBFBF8"></rect><rect width="860" height="3" fill="#111987"></rect><g transform="translate(765.8856209150326,14) scale(0.15250544662309368)"><g><path fill="#111987" d="M110.14,113.86c-.2,2.47-.86,4.76-1.75,6.93,4.03-3.25,8.12-7.25,12.15-12.3,8.7-11.31,14.09-25.96,14.09-41.33C134.63,30.1,104.59,0,67.53,0S1.62,28.77.36,64.73c-.03.79-.33,6.59-.35,11v74.8s-.02,1.39,0,3.69c.02,3.07.11,7.87.41,13.01.46,7.64,5.09,12.62,11.77,14.39,1.81.47,3.77.72,5.85.72,9.73,0,17.04-5.3,17.62-15,.31-5.14.35-9.95.37-13.01.02-2.23-.05-3.8-.05-3.8v-79.97c-.06-14.01,4.49-20.41,4.49-20.41,5.68-8.95,15.75-14.91,27.07-14.91,17.44,0,31.58,14.14,31.58,31.58,0,.28,0,2.45-.02,2.74-5.21-5.42-15.78-10.67-25.28-10.67-21.1,0-37.79,16.69-37.79,37.79s16.47,37.23,37.57,37.23c1.13,0,2.6-.05,4.3-.2-9.26-3.75-15.5-13.08-14.67-23.57,1.03-12.96,12.37-22.62,25.32-21.6,12.95,1.02,22.63,12.36,21.6,25.32Z"></path><path fill="#078E53" d="M112.34,133.95c-13.71,0-24.83,11.11-24.83,24.83s11.12,24.82,24.83,24.82,24.82-11.12,24.82-24.82-11.11-24.83-24.82-24.83Z"></path></g><g fill="#111987"><rect x="302.97" y="131.75" width="16.31" height="46.28"></rect><polyline points="248.07 96.65 231.76 96.65 231.76 178.03 248.07 178.03 248.07 96.65"></polyline><rect x="264.48" y="96.65" width="16.3" height="81.38"></rect><polygon points="417.52 120.57 417.52 96.65 401.21 96.65 401.21 118.06 401.21 127.33 401.21 178.03 417.52 178.03 417.52 152.54 417.52 120.57"></polygon><polygon points="459.7 96.65 443.39 96.65 443.39 143.53 429.1 129.24 417.57 140.78 443.39 166.59 443.39 178.03 459.7 178.03 459.75 178.03 459.7 96.65"></polygon><polygon points="292.46 139.2 329 102.59 317.38 90.98 280.85 127.52 292.46 139.2"></polygon><path d="M188.39,111.79c6.87,1.79,11.85,7.87,11.85,15.26,0,2.95-.8,5.71-2.2,8.07-2.75,4.66-8.95,7.99-13.57,8.17h0l22.38,38.83,14.29-8.19-14.94-25.84s.02-.02,0,0c5.49-4.57,10.16-12.83,10.16-20.95s-3.37-15.88-8.81-21.36c-1.25-1.27-2.61-2.42-4.06-3.44,0,0-5.69-4.47-13.83-5.23-6.13-.56-10.71-.47-14.78-.47h-17.14v14.43h16.53c12.6,0,14.12.71,14.12.71"></path><polyline points="157.69 150.1 157.69 123.91 174.01 123.91 174.01 178.03 157.69 178.03 157.69 150.1"></polyline><rect x="335.65" y="96.65" width="49.17" height="15.74"></rect><rect x="335.65" y="162.48" width="49.17" height="15.55"></rect><rect x="335.65" y="129.57" width="49.17" height="15.73"></rect></g></g><g transform="translate(40,54)"><defs><marker id="arr" viewBox="0 0 10 10" refX="9" refY="5" markerWidth="6" markerHeight="6" orient="auto-start-reverse"><path d="M0,0 L10,5 L0,10 z" fill="#4A5260"></path></marker></defs><g><rect x="10" y="10" width="380" height="162" fill="#FBFBF8" stroke="#D4D7DD" stroke-width="0.75" rx="10"></rect><path d="M 20 10 H 380 A 10 10 0 0 1 390 20 V 34 H 10 V 20 A 10 10 0 0 1 20 10 Z" fill="#078E53"></path><text x="24" y="25.5" font-family="'IBM Plex Mono', ui-monospace, monospace" font-size="8.5" letter-spacing="1.5" fill="#fff">計算ノード (400ノード)</text></g><g><rect x="410" y="90" width="220" height="64" fill="#FBFBF8" stroke="#D4D7DD" stroke-width="0.75" rx="10"></rect><path d="M 420 90 H 620 A 10 10 0 0 1 630 100 V 114 H 410 V 100 A 10 10 0 0 1 420 90 Z" fill="#111987"></path><text x="424" y="105.5" font-family="'IBM Plex Mono', ui-monospace, monospace" font-size="8.5" letter-spacing="1.5" fill="#fff">フロントエンドノード (16ノード)</text></g><g><rect x="10" y="248" width="760" height="106" fill="#FBFBF8" stroke="#D4D7DD" stroke-width="0.75" rx="10"></rect><path d="M 20 248 H 760 A 10 10 0 0 1 770 258 V 272 H 10 V 258 A 10 10 0 0 1 20 248 Z" fill="#7A2E12"></path><text x="24" y="263.5" font-family="'IBM Plex Mono', ui-monospace, monospace" font-size="8.5" letter-spacing="1.5" fill="#fff">高速共有ファイルシステム (1.08PB)</text></g><g><path d="M 20 192 L 752 192 A 18 18 0 0 1 752 228 L 20 228 Z" fill="#E2E4E8" stroke="#0E1116" stroke-width="1"></path><path d="M 10 192 L 20 192 L 20 228 L 10 228 Z" fill="#0E1116"></path></g><text x="38" y="215" font-family="'Inter', system-ui, sans-serif" font-size="13" font-weight="600" fill="#0E1116">相互結合網 (InfiniBand XDR: 800Gbps)</text><g><path d="M 426 18 L 752 18 A 18 18 0 0 1 752 54 L 426 54 Z" fill="#FBFBF8" stroke="#4A5260" stroke-width="1"></path><path d="M 420 18 L 426 18 L 426 54 L 420 54 Z" fill="#4A5260"></path></g><text x="440" y="40.5" font-family="'Inter', system-ui, sans-serif" font-size="11" font-weight="500" fill="#0E1116">フロントエンドネットワーク (Ethernet 10/100Gbps)</text><g><path d="M 656 90 L 752 90 A 18 18 0 0 1 752 126 L 656 126 Z" fill="#FBFBF8" stroke="#4A5260" stroke-width="1"></path><path d="M 650 90 L 656 90 L 656 126 L 650 126 Z" fill="#4A5260"></path></g><text x="670" y="112.5" font-family="'Inter', system-ui, sans-serif" font-size="10" font-weight="500" fill="#0E1116">外部ネットワーク</text><g><text x="24" y="48" font-family="'IBM Plex Mono', ui-monospace, monospace" font-size="8.5" fill="#4A5260">SUPERMICRO PIO-121GL-NBIB-01 × 400ノード</text><text x="24" y="62" font-family="'IBM Plex Mono', ui-monospace, monospace" font-size="8.5" fill="#4A5260">ノードあたり NVIDIA GB200 NVL4 x1基 (CPU x2, GPU x4)</text><text x="24" y="76" font-family="'IBM Plex Mono', ui-monospace, monospace" font-size="8.5" fill="#4A5260">合算演算性能 (HW FP64): 59.630 PFlops (Rmax)</text><text x="24" y="90" font-family="'IBM Plex Mono', ui-monospace, monospace" font-size="8.5" fill="#4A5260">合算演算性能 (エミュレーション FP64): 93.210 PFlops (Rmax)</text><text x="24" y="104" font-family="'IBM Plex Mono', ui-monospace, monospace" font-size="8.5" fill="#4A5260">合算演算性能 (GPU): 15.539 EFlops (FP8)</text><text x="24" y="118" font-family="'IBM Plex Mono', ui-monospace, monospace" font-size="8.5" fill="#4A5260">合算理論メモリ帯域 (CPU): 1.027 PB/sec</text><text x="24" y="132" font-family="'IBM Plex Mono', ui-monospace, monospace" font-size="8.5" fill="#4A5260">合算理論メモリ帯域 (GPU): 12.640 PB/sec</text><text x="24" y="146" font-family="'IBM Plex Mono', ui-monospace, monospace" font-size="8.5" fill="#4A5260">合算メモリ容量 (GPU): 270.625 TiB (692.8 GiB/ノード)</text></g><g><text x="424" y="128" font-family="'IBM Plex Mono', ui-monospace, monospace" font-size="8.5" fill="#4A5260">SUPERMICRO SYS-212HA-TN</text></g><g><text x="24" y="286" font-family="'IBM Plex Mono', ui-monospace, monospace" font-size="8.5" fill="#4A5260">DDN Lustre</text><text x="24" y="300" font-family="'IBM Plex Mono', ui-monospace, monospace" font-size="8.5" fill="#4A5260">MDS/MDT/OSS/OST : DDN ES400X3-NDR200 (30.72TB TLC NVMe SSD × 23) × 2台</text><text x="24" y="314" font-family="'IBM Plex Mono', ui-monospace, monospace" font-size="8.5" fill="#4A5260">メタデータバックアップサーバー : R760 × 1</text><text x="24" y="328" font-family="'IBM Plex Mono', ui-monospace, monospace" font-size="8.5" fill="#4A5260">Monitoring サーバー : R660 × 1</text></g><path d="M 595 54 V 66 a 6 6 0 0 1 -6 6 H 526 a 6 6 0 0 0 -6 6 V 90" fill="none" stroke="#4A5260" stroke-width="1" marker-end="url(#arr)"></path><path d="M 595 54 V 66 a 6 6 0 0 0 6 6 H 704 a 6 6 0 0 1 6 6 V 90" fill="none" stroke="#4A5260" stroke-width="1" marker-end="url(#arr)"></path><line x1="200" y1="172" x2="200" y2="192" stroke="#4A5260" stroke-width="1" marker-end="url(#arr)"></line><line x1="520" y1="154" x2="520" y2="192" stroke="#4A5260" stroke-width="1" marker-end="url(#arr)"></line><line x1="390" y1="228" x2="390" y2="248" stroke="#4A5260" stroke-width="1" marker-end="url(#arr)"></line></g></svg>